<svg width="212" height="100" viewBox="0 0 212 100" fill="none" xmlns="http://www.w3.org/2000/svg">
<g clip-path="url(#clip0)">
<path fill-rule="evenodd" clip-rule="evenodd" d="M67.5563 36.6806C101.205 53.0518 104.636 54.7088 132.523 40.1051C113.807 47.0866 98.3684 48.0587 88.2516 39.3318C98.7422 40.8784 107.693 38.5144 115.941 34.3609C110.442 35.3771 108.155 32.7039 108.969 27.534C120.691 32.262 128.543 28.9922 137.032 22.8723C130.016 25.3247 122.033 28.0422 115.303 25.0596C106 20.9281 97.4227 21.1712 93.4639 31.8422C94.8715 31.5992 99.1821 27.1805 102.855 29.5003C105.78 31.3562 105.208 33.7864 99.578 35.7085C87.9217 39.6632 81.7857 34.6923 76.1775 32.4829C74.2421 31.7318 72.1968 30.9585 69.9975 30.2957C62.168 27.9538 52.6231 27.048 40.9888 33.1899C40.6809 33.3446 12.7939 52.6762 0.499877 45.6726C0.389912 45.6063 8.54928 52.9192 22.4048 50.1134C25.5718 49.4727 29.2886 48.0366 33.1594 45.9819C42.9462 40.8121 56.1639 31.1352 67.5563 36.6806Z" fill="url(#paint0_linear)"/>
<path fill-rule="evenodd" clip-rule="evenodd" d="M139.649 22.0548C134.261 19.8675 130.588 20.5966 129.928 20.7292C129.268 20.8617 123.99 22.828 120.889 22.8722C117.788 22.9164 109.475 25.2362 101.777 14.8082C94.0796 4.38014 105.34 21.1931 116.754 16.4873C128.169 11.7814 130.874 8.4674 138.967 9.19648C136.24 6.96506 132.567 7.49529 124.518 9.94765C123.77 10.1686 125.683 5.10922 136.46 3.67316C147.039 2.28128 154.846 7.20808 156.056 9.28485C157.265 11.3616 158.629 7.73832 153.592 5.02085C148.556 2.30337 145.983 1.53011 145.983 1.53011C145.983 1.53011 148.094 -0.900151 157.595 2.81152C167.074 6.52319 162.478 13.8361 184.47 10.6325C184.8 14.5431 178.071 16.2442 178.071 16.2442C178.071 16.2442 190.584 18.5198 190.562 22.8722C190.54 27.2467 203.582 29.0804 208.047 33.5875C212.533 38.0945 211.742 42.2259 210.642 43.1318C209.542 44.0376 206.419 46.7992 206.265 47.0423C206.089 47.3074 200.459 41.1434 193.663 43.9713C190.057 45.4736 201.735 47.4841 201.977 49.2958L196.039 50.8202C196.039 50.8202 187.527 41.1434 171.847 45.3853C161.752 48.1248 155.902 52.1237 150.491 63.0157C150.205 63.568 146.995 71.7426 146.709 72.3391L144.641 72.2728C147.456 59.4808 150.425 48.8318 162.719 41.4969C150.227 42.1597 153.285 23.0711 161.62 27.1583C167.206 29.8758 159.091 28.0641 161.972 34.5817C164.853 41.0992 174.332 42.005 187.439 37.6747C187.571 40.105 182.315 41.8062 183.261 41.541C184.207 41.298 197.93 39.0887 205.232 43.905C212.533 48.7214 205.1 28.1967 176.927 25.5897C170.681 24.4629 179.192 20.2652 179.192 20.2652C179.192 20.2652 166.48 11.914 159.443 12.7977C152.405 13.6814 159.948 17.4815 159.948 17.4815L154.582 18.3873C154.582 18.3873 143.784 3.47432 127.223 16.7303C136.328 15.0291 140.946 16.1338 146.973 20.442C143.652 21.5687 139.649 22.0548 139.649 22.0548Z" fill="url(#paint1_linear)"/>
<path fill-rule="evenodd" clip-rule="evenodd" d="M35.6005 32.8363C35.6005 32.8363 57.9453 18.2547 71.317 26.6502C67.6002 15.6477 46.8169 17.3268 35.2486 31.6433C33.4672 33.8526 35.6665 32.8142 35.6005 32.8363Z" fill="url(#paint2_linear)"/>
<path d="M31.3999 84.5787V51.9911H37.6899C42.9022 51.9911 48.5764 53.5376 48.5764 58.8179C48.5764 60.8505 47.8726 62.2645 45.2554 64.297C47.6967 65.5122 48.6863 66.418 49.3901 67.4564C50.5997 69.2459 51.2595 71.3227 51.2595 73.7751C51.2595 81.6403 46.9049 84.5787 38.8775 84.5787H31.3999ZM34.3909 54.8632V63.4354H36.5462C39.8672 63.4354 42.2644 62.9714 43.628 62.0656C45.0355 61.0714 45.5413 60.5633 45.5413 58.8621C45.5413 55.283 39.5813 54.8632 37.426 54.8632H34.3909ZM39.2734 66.3296H34.3909V81.7065H39.2734C42.0445 81.7065 44.1558 81.1984 45.5194 80.16C48.7963 77.6635 48.6643 70.3506 45.4754 67.8982C44.1118 66.8378 42.0445 66.3296 39.2734 66.3296Z" fill="#454444"/>
<path d="M53.635 72.4054C53.635 65.3355 59.2652 59.3041 66.7208 59.3041C70.4376 59.3041 73.5606 60.5855 76.1997 63.082C78.8169 65.5786 80.1805 68.5391 80.1805 72.074C80.1805 79.2764 74.5943 85.3741 66.9407 85.3741C59.3532 85.3741 53.635 79.6299 53.635 72.4054ZM56.868 72.3612C56.868 77.8845 60.8487 82.5462 66.9627 82.5462C69.8658 82.5462 72.307 81.552 74.1324 79.5857C76.0018 77.5531 76.9475 75.145 76.9475 72.317C76.9475 66.617 72.8568 62.132 66.6768 62.132C60.7167 62.132 56.868 67.1251 56.868 72.3612Z" fill="#454444"/>
<path d="M87.2397 84.6671H84.0947V70.2402C84.0947 65.4238 85.2604 62.4633 89.8569 60.5191C90.9785 60.0552 91.9242 59.8121 93.0458 59.7238V62.9715C88.7352 63.4796 87.2177 65.225 87.2177 69.7983V84.6671H87.2397Z" fill="#454444"/>
<path d="M120.735 84.6672H117.722V80.8009C114.159 84.2916 111.3 85.33 107.627 85.33C99.9736 85.33 94.4314 79.8067 94.4314 72.5159C94.4314 65.1146 100.15 59.5471 107.891 59.5471C111.828 59.5471 116.38 61.5355 118.492 64.6949C119.613 66.396 120.273 67.9426 120.515 69.3124L120.801 73.5543L120.735 84.6672ZM97.6424 72.6484C97.6424 78.1055 101.821 82.5904 107.737 82.5904C110.508 82.5904 112.993 81.5079 114.907 79.4311C120.867 73.024 116.556 62.2646 107.825 62.2646C101.777 62.2646 97.6424 67.1693 97.6424 72.6484Z" fill="#454444"/>
<path d="M129.049 71.4774V71.7646V84.5787H125.948V51.9911H129.049V71.4774ZM129.049 71.4774V71.7646L138.571 60.033H142.09L132.743 71.4332L144.092 84.5787H140.199L129.049 71.4774Z" fill="#454444"/>
<path d="M104.768 97.5033V88.5114H109.628V89.3288H105.648V91.6928H109.628V92.5102H105.648V96.708H109.628V97.5254H104.768V97.5033Z" fill="#9F235A"/>
<path d="M113.741 93.9905L116.028 97.5254H115.083L113.213 94.6533L111.278 97.5254H110.354L112.773 93.9905L110.662 90.7428H111.608L113.301 93.3498L115.105 90.7428H116.094L113.741 93.9905Z" fill="#9F235A"/>
<path d="M117.458 96.4869V99.7567H116.622V94.2997C116.622 92.3113 117.942 90.6101 120.163 90.6101C121.241 90.6101 122.12 90.9415 122.824 91.6264C123.528 92.3113 123.88 93.1729 123.88 94.1892C123.88 96.1997 122.34 97.7241 120.229 97.7241C119.239 97.7241 118.447 97.4369 117.458 96.4869ZM117.458 94.1229C117.458 95.6916 118.36 96.9951 120.207 96.9951C120.999 96.9951 121.68 96.7299 122.186 96.1776C122.714 95.6474 123 94.9846 123 94.2334C123 92.7311 121.856 91.3613 120.185 91.3613C118.623 91.3613 117.458 92.7311 117.458 94.1229Z" fill="#9F235A"/>
<path d="M125.837 97.5253H124.979V93.5485C124.979 92.2229 125.309 91.4055 126.563 90.8752C126.871 90.7427 127.135 90.6764 127.443 90.6543V91.5601C126.255 91.6927 125.837 92.1787 125.837 93.4381V97.5253Z" fill="#9F235A"/>
<path d="M128.718 93.9462C128.762 95.6916 129.73 96.9509 131.489 96.9509C132.699 96.9509 133.865 96.2219 134.129 95.0067H135.096C134.634 96.5753 133.293 97.7242 131.533 97.7242C129.444 97.7242 127.839 96.1335 127.839 94.123C127.839 92.0683 129.4 90.4997 131.577 90.5439C133.227 90.5881 134.371 91.3613 134.964 92.7753C135.14 93.1951 135.228 93.5486 135.228 93.88V93.9241H128.718V93.9462ZM129.554 92.0683C129.246 92.3555 129.048 92.6427 128.784 93.2172L134.129 93.1951C133.491 91.8695 132.655 91.3171 131.401 91.3171C130.698 91.3171 130.104 91.5602 129.554 92.0683Z" fill="#9F235A"/>
<path d="M136.658 95.4488C136.658 96.1558 137.098 96.9511 138.021 96.9511C138.747 96.9511 139.297 96.4651 139.297 95.7802C139.297 95.029 138.747 94.6976 138.131 94.4546C137.955 94.3662 137.736 94.322 137.538 94.2336C136.746 93.9464 136.064 93.5929 136.064 92.4662C136.064 91.4057 136.988 90.5662 138.109 90.5662C139.407 90.5662 139.979 91.2731 140.111 92.3778H139.187C139.099 91.8255 138.901 91.3615 138.043 91.3615C137.428 91.3615 136.944 91.8034 136.944 92.3999C136.944 92.9743 137.362 93.2615 137.779 93.4383C138.175 93.615 138.615 93.7034 138.923 93.836C139.781 94.1895 140.221 94.8081 140.221 95.6918C140.221 96.8848 139.231 97.7023 137.955 97.7023C136.548 97.7023 135.756 96.7302 135.712 95.4267H136.658V95.4488Z" fill="#9F235A"/>
<path d="M141.76 95.4488C141.76 96.1558 142.2 96.9511 143.123 96.9511C143.849 96.9511 144.399 96.4651 144.399 95.7802C144.399 95.029 143.849 94.6976 143.233 94.4546C143.057 94.3662 142.838 94.322 142.64 94.2336C141.848 93.9464 141.166 93.5929 141.166 92.4662C141.166 91.4057 142.09 90.5662 143.211 90.5662C144.509 90.5662 145.081 91.2731 145.213 92.3778H144.289C144.201 91.8255 144.003 91.3615 143.145 91.3615C142.53 91.3615 142.046 91.8034 142.046 92.3999C142.046 92.9743 142.464 93.2615 142.882 93.4383C143.277 93.615 143.717 93.7034 144.025 93.836C144.883 94.1895 145.323 94.8081 145.323 95.6918C145.323 96.8848 144.333 97.7023 143.057 97.7023C141.65 97.7023 140.858 96.7302 140.814 95.4267H141.76V95.4488Z" fill="#9F235A"/>
</g>
<defs>
<linearGradient id="paint0_linear" x1="0.499877" y1="36.6676" x2="137.03" y2="36.6676" gradientUnits="userSpaceOnUse">
<stop stop-color="#9E2374"/>
<stop offset="1" stop-color="#424143"/>
</linearGradient>
<linearGradient id="paint1_linear" x1="99.2374" y1="36.5564" x2="211.51" y2="36.5564" gradientUnits="userSpaceOnUse">
<stop stop-color="#9E2374"/>
<stop offset="1" stop-color="#424143"/>
</linearGradient>
<linearGradient id="paint2_linear" x1="34.5512" y1="26.27" x2="71.3201" y2="26.27" gradientUnits="userSpaceOnUse">
<stop stop-color="#9E2374"/>
<stop offset="1" stop-color="#424143"/>
</linearGradient>
<clipPath id="clip0">
<rect width="211" height="99" fill="white" transform="translate(0.5 0.756836)"/>
</clipPath>
</defs>
</svg>
