<svg width="139" height="66" viewBox="0 0 139 66" fill="none" xmlns="http://www.w3.org/2000/svg">
<path fill-rule="evenodd" clip-rule="evenodd" d="M44.6201 24.2096C66.6195 34.8341 68.8662 35.9177 87.1049 26.4306C74.8589 30.9609 64.7711 31.5884 58.154 25.9305C65.012 26.9405 70.8621 25.401 76.26 22.6996C72.6565 23.3565 71.1768 21.6258 71.693 18.2723C79.367 21.3415 84.4895 19.2234 90.0447 15.2521C85.4531 16.8456 80.2322 18.6106 75.8372 16.6691C69.7511 13.9823 64.1369 14.149 61.556 21.0669C62.4704 20.91 65.2971 18.0419 67.6913 19.5372C69.6036 20.7335 69.2251 22.3269 65.5528 23.5674C57.9279 26.1414 53.9164 22.9104 50.249 21.4738C48.9905 20.9787 47.6435 20.4835 46.2129 20.0569C41.0952 18.537 34.8518 17.9536 27.2515 21.9347C27.05 22.0426 8.80146 34.5939 0.768576 30.0489C0.694835 30.0048 6.0337 34.7508 15.099 32.9367C17.1736 32.5249 19.6021 31.5884 22.1388 30.2549C28.5199 26.8964 37.1673 20.6109 44.6201 24.2096Z" fill="url(#paint0_linear)"/>
<path fill-rule="evenodd" clip-rule="evenodd" d="M91.7604 14.7226C88.2356 13.3057 85.8365 13.7764 85.4039 13.8597C84.9664 13.948 81.5251 15.2227 79.4899 15.2472C77.4595 15.2718 72.0223 16.7867 66.9883 10.0159C61.9542 3.24506 69.3136 14.1539 76.786 11.1043C84.2585 8.05476 86.0184 5.90241 91.318 6.36818C89.5334 4.92674 87.1344 5.26504 81.8742 6.85846C81.3826 7.00555 82.6411 3.71083 89.6809 2.7891C96.5929 1.88207 101.701 5.08363 102.497 6.43682C103.294 7.7851 104.183 5.42683 100.895 3.6618C97.6056 1.89678 95.9194 1.39669 95.9194 1.39669C95.9194 1.39669 97.3058 -0.182032 103.51 2.22527C109.714 4.63257 106.705 9.37853 121.085 7.30462C121.301 9.8394 116.896 10.9523 116.896 10.9523C116.896 10.9523 125.082 12.4232 125.062 15.2571C125.042 18.0909 133.572 19.2823 136.497 22.2093C139.427 25.1363 138.906 27.8133 138.193 28.4065C137.48 28.9998 135.44 30.7795 135.327 30.9462C135.214 31.1129 131.522 27.1122 127.087 28.9507C124.738 29.9215 132.372 31.2256 132.525 32.4023L128.646 33.3878C128.646 33.3878 123.076 27.1023 112.826 29.8627C106.233 31.6375 102.404 34.236 98.8691 41.3108C98.6872 41.6687 96.5733 46.9785 96.3963 47.3609L95.0493 47.3119C96.8928 39.0163 98.8396 32.0984 106.868 27.3377C98.697 27.7642 100.703 15.3796 106.155 18.0272C109.802 19.7971 104.498 18.6155 106.391 22.8418C108.283 27.068 114.473 27.6564 123.046 24.847C123.135 26.4208 119.694 27.524 120.313 27.3622C120.932 27.2004 129.904 25.7688 134.673 28.9017C139.442 32.0346 134.589 18.7087 116.169 17.0074C112.088 16.267 117.644 13.5558 117.644 13.5558C117.644 13.5558 109.335 8.13321 104.734 8.71174C100.128 9.29028 105.068 11.7564 105.068 11.7564L101.563 12.3448C101.563 12.3448 94.4987 2.66653 83.6735 11.271C89.6318 10.163 92.6551 10.8886 96.588 13.6783C94.3709 14.3991 91.7604 14.7226 91.7604 14.7226Z" fill="url(#paint1_linear)"/>
<path fill-rule="evenodd" clip-rule="evenodd" d="M23.7267 21.719C23.7267 21.719 38.3471 12.2565 47.0781 17.6987C44.6496 10.5503 31.0566 11.6437 23.4956 20.9346C22.3207 22.3809 23.766 21.7092 23.7267 21.719Z" fill="url(#paint2_linear)"/>
<path d="M20.9738 55.3035V34.1575H25.0836C28.4904 34.1575 32.2021 35.1675 32.2021 38.5946C32.2021 39.9086 31.74 40.8303 30.0243 42.1443C31.622 42.9385 32.266 43.522 32.7232 44.1937C33.5196 45.3557 33.9522 46.7039 33.9522 48.2925C33.9522 53.4012 31.096 55.2986 25.8505 55.2986H20.9738V55.3035ZM22.9353 36.0255V41.5952H24.3462C26.524 41.5952 28.0873 41.2912 28.9771 40.7077C29.8965 40.0655 30.2357 39.7272 30.2357 38.6289C30.2357 36.305 26.3372 36.0255 24.9263 36.0255H22.9353ZM26.1258 43.4632H22.9353V53.4405H26.1258C27.9349 53.4405 29.3164 53.1022 30.2062 52.4305C32.3545 50.8076 32.2611 46.0666 30.1767 44.4731C29.2869 43.7965 27.9349 43.4632 26.1258 43.4632Z" fill="#454444"/>
<path d="M35.5155 47.41C35.5155 42.8209 39.1976 38.9035 44.0744 38.9035C46.498 38.9035 48.553 39.7321 50.2736 41.35C51.9893 42.9729 52.884 44.8997 52.884 47.1942C52.884 51.8765 49.2314 55.8233 44.2317 55.8233C39.2566 55.8233 35.5155 52.0922 35.5155 47.41ZM37.6343 47.3806C37.6343 50.9596 40.2448 53.9896 44.2317 53.9896C46.1342 53.9896 47.732 53.3473 48.9266 52.0628C50.1556 50.7488 50.7701 49.1848 50.7701 47.3511C50.7701 43.6495 48.1007 40.7421 44.0498 40.7421C40.1465 40.7372 37.6343 43.9829 37.6343 47.3806Z" fill="#454444"/>
<path d="M57.4855 55.3624H55.4305V45.9979C55.4305 42.8748 56.1975 40.948 59.2061 39.6929C59.9435 39.3889 60.558 39.232 61.2905 39.1732V41.2863C58.4687 41.6246 57.4855 42.7571 57.4855 45.7234V55.3624Z" fill="#454444"/>
<path d="M79.3915 55.3624H77.43V52.8521C75.0998 55.1172 73.2268 55.7889 70.8327 55.7889C65.833 55.7889 62.2098 52.2099 62.2098 47.4639C62.2098 42.6591 65.9559 39.0506 71.0145 39.0506C73.5906 39.0506 76.5697 40.3351 77.9462 42.3845C78.6836 43.4877 79.1113 44.4977 79.2637 45.3851L79.4505 48.1405L79.3915 55.3624ZM64.2943 47.562C64.2943 51.1116 67.0227 54.019 70.8916 54.019C72.7008 54.019 74.328 53.313 75.5865 51.9696C79.485 47.8071 76.6631 40.8303 70.9556 40.8303C66.9932 40.8303 64.2943 44.0123 64.2943 47.562Z" fill="#454444"/>
<path d="M84.8239 46.7971V46.9785V55.3036H82.7985V34.1576H84.8239V46.7971ZM84.8239 46.7971V46.9785L91.0526 39.3595H93.3533L87.2475 46.7628L94.6708 55.2987H92.1243L84.8239 46.7971Z" fill="#454444"/>
<path d="M68.9547 63.6972V57.8579H72.1305V58.3923H69.5201V59.922H72.1305V60.4564H69.5201V63.1775H72.1305V63.7021H68.9547V63.6972Z" fill="#9F235A"/>
<path d="M74.8244 61.4174L76.3238 63.7169H75.6946L74.4754 61.8489L73.2021 63.7169H72.5925L74.1706 61.4272L72.7892 59.3141H73.4086L74.5098 61.0105L75.6897 59.3141H76.3337L74.8244 61.4174Z" fill="#9F235A"/>
<path d="M77.2481 63.0402V65.1681H76.6975V61.6184C76.6975 60.3339 77.5627 59.2258 79.0179 59.2258C79.7209 59.2258 80.2961 59.4465 80.7533 59.8828C81.2105 60.3241 81.4464 60.8781 81.4464 61.5449C81.4464 62.8441 80.4386 63.8345 79.0572 63.8345C78.4181 63.8443 77.897 63.658 77.2481 63.0402ZM77.2481 61.5008C77.2481 62.5156 77.843 63.3589 79.0474 63.3589C79.5636 63.3589 80.006 63.1824 80.3452 62.8343C80.6943 62.4862 80.8713 62.0646 80.8713 61.5743C80.8713 60.5937 80.124 59.7063 79.0326 59.7063C78.0199 59.7112 77.2481 60.5986 77.2481 61.5008Z" fill="#9F235A"/>
<path d="M82.7344 63.7169H82.1691V61.133C82.1691 60.2701 82.3805 59.7406 83.2113 59.3925C83.4128 59.3092 83.5849 59.2651 83.7865 59.2504V59.8338C83.0048 59.9269 82.7344 60.2407 82.7344 61.0595V63.7169Z" fill="#9F235A"/>
<path d="M84.6173 61.3831C84.6517 62.5156 85.281 63.3344 86.4215 63.3344C87.2179 63.3344 87.9799 62.8638 88.1421 62.0744H88.7665C88.4617 63.0893 87.5866 63.8394 86.4363 63.8394C85.0647 63.8394 84.0225 62.8 84.0225 61.5057C84.0225 60.1721 85.0499 59.1474 86.4658 59.1817C87.5522 59.2062 88.2945 59.7161 88.678 60.633C88.796 60.9026 88.8501 61.1379 88.8501 61.3488V61.3733H84.6173V61.3831ZM85.1679 60.1672C84.9713 60.3535 84.8385 60.5398 84.6665 60.9173L88.1569 60.9026C87.7341 60.0397 87.1982 59.6867 86.3773 59.6867C85.9102 59.6867 85.5169 59.8436 85.1679 60.1672Z" fill="#9F235A"/>
<path d="M89.7988 62.3637C89.7988 62.8196 90.079 63.3344 90.6886 63.3344C91.1655 63.3344 91.5293 63.0206 91.5293 62.5745C91.5293 62.0842 91.1655 61.8636 90.7673 61.7116C90.6493 61.6626 90.5116 61.6282 90.3789 61.5694C89.8627 61.3831 89.4203 61.1478 89.4203 60.427C89.4203 59.7357 90.0299 59.1915 90.7574 59.1915C91.6079 59.1915 91.9865 59.6475 92.07 60.3731H91.4703C91.4211 60.0103 91.2835 59.7161 90.723 59.7161C90.3248 59.7161 90.0102 60.0054 90.0102 60.3927C90.0102 60.7653 90.2806 60.9565 90.551 61.0693C90.8066 61.1772 91.1016 61.236 91.3031 61.3243C91.8636 61.5547 92.1487 61.9518 92.1487 62.5304C92.1487 63.3099 91.4948 63.8296 90.6739 63.8296C89.7595 63.8296 89.2334 63.2021 89.2089 62.3588H89.7988V62.3637Z" fill="#9F235A"/>
<path d="M93.1468 62.3637C93.1468 62.8196 93.427 63.3344 94.0366 63.3344C94.5135 63.3344 94.8773 63.0206 94.8773 62.5745C94.8773 62.0842 94.5135 61.8636 94.1153 61.7116C93.9973 61.6626 93.8596 61.6282 93.7269 61.5694C93.2107 61.3831 92.7683 61.1478 92.7683 60.427C92.7683 59.7357 93.3779 59.1915 94.1055 59.1915C94.9559 59.1915 95.3345 59.6475 95.4181 60.3731H94.8183C94.7691 60.0103 94.6315 59.7161 94.071 59.7161C93.6728 59.7161 93.3582 60.0054 93.3582 60.3927C93.3582 60.7653 93.6286 60.9565 93.899 61.0693C94.1546 61.1772 94.4496 61.236 94.6511 61.3243C95.2116 61.5547 95.4967 61.9518 95.4967 62.5304C95.4967 63.3099 94.8429 63.8296 94.0219 63.8296C93.1075 63.8296 92.5815 63.2021 92.5569 62.3588H93.1468V62.3637Z" fill="#9F235A"/>
<defs>
<linearGradient id="paint0_linear" x1="0.768576" y1="24.2048" x2="90.0488" y2="24.2048" gradientUnits="userSpaceOnUse">
<stop stop-color="#9E2374"/>
<stop offset="1" stop-color="#424143"/>
</linearGradient>
<linearGradient id="paint1_linear" x1="65.3354" y1="24.1326" x2="138.753" y2="24.1326" gradientUnits="userSpaceOnUse">
<stop stop-color="#9E2374"/>
<stop offset="1" stop-color="#424143"/>
</linearGradient>
<linearGradient id="paint2_linear" x1="23.0356" y1="17.4549" x2="47.0795" y2="17.4549" gradientUnits="userSpaceOnUse">
<stop stop-color="#9E2374"/>
<stop offset="1" stop-color="#424143"/>
</linearGradient>
</defs>
</svg>
