<svg width="101" height="101" viewBox="0 0 101 101" fill="none" xmlns="http://www.w3.org/2000/svg">
<circle cx="50.8461" cy="50.1377" r="50" fill="#CCCCCC"/>
<g clip-path="url(#clip0)">
<path d="M77.6528 27.0244H36.6684C34.6975 27.0244 33.0942 28.6277 33.0942 30.5986V36.3002L22.2608 25.4672C21.7958 25.0018 21.0414 25.0018 20.576 25.4672C20.1106 25.9321 20.1106 26.6865 20.576 27.1519L34.6095 41.1854L27.1949 48.6L22.2608 43.6659C21.7958 43.201 21.0414 43.201 20.576 43.6659C20.1106 44.1313 20.1106 44.8857 20.576 45.3511L30.4796 55.2547L30.4782 56.327C30.474 59.0635 31.415 61.7502 33.0942 63.8933V71.583C33.0942 73.554 34.6975 75.1573 36.6684 75.1573H77.6528C79.6237 75.1573 81.227 73.554 81.227 71.583V44.4176C81.227 43.7595 80.6937 43.2262 80.0356 43.2262C79.3775 43.2262 78.8442 43.7595 78.8442 44.4176V71.583C78.8442 72.2397 78.3099 72.7744 77.6528 72.7744H52.7799C52.8297 72.7302 52.8785 72.6846 52.9265 72.6367C53.2318 72.3314 53.4668 71.9823 53.6329 71.6096C54.1044 71.8455 54.6275 71.9712 55.1701 71.9712C56.0888 71.9712 56.9526 71.6133 57.6027 70.9636C58.2524 70.3144 58.6103 69.4501 58.6103 68.5314C58.6103 67.9893 58.4846 67.4666 58.2492 66.9957C58.6266 66.8262 58.9742 66.5889 59.2753 66.2878C59.925 65.6381 60.2829 64.7739 60.2829 63.8552C60.2829 62.936 59.925 62.0723 59.2753 61.4226L55.172 57.3192C56.4355 57.4113 57.7135 56.8678 58.5098 55.7797L58.5489 55.7262C59.7971 54.0196 59.4364 51.6079 57.7447 50.3504C56.6775 49.5574 55.232 48.4786 53.4482 47.1434C50.9457 45.2716 47.8476 44.2412 44.7225 44.2412C44.7174 44.2412 44.7123 44.2412 44.7067 44.2412L41.0389 44.2449L35.477 38.683V30.5986C35.477 29.9415 36.0113 29.4072 36.6684 29.4072H49.1065V41.5568C49.1065 42.0389 49.3969 42.4731 49.8423 42.6574C50.2872 42.8422 50.7996 42.7403 51.1403 42.3996L53.7293 39.8106L56.3182 42.3991C56.7832 42.8645 57.5376 42.8645 58.003 42.3991L60.5919 39.8106L63.1805 42.3991C63.4085 42.6272 63.7133 42.7482 64.0233 42.7482C64.1769 42.7482 64.3318 42.7184 64.4789 42.6574C64.9243 42.4731 65.2147 42.0389 65.2147 41.5568V29.4072H77.6528C78.3099 29.4072 78.8442 29.9415 78.8442 30.5986V34.8863C78.8442 35.5444 79.3775 36.0777 80.0356 36.0777C80.6937 36.0777 81.227 35.5444 81.227 34.8863V30.5986C81.227 28.6277 79.6237 27.0244 77.6528 27.0244ZM35.477 71.583V66.4013L39.37 70.2944C39.3705 70.2948 39.3709 70.2953 39.3709 70.2953L41.8501 72.7744H36.6684C36.0113 72.7744 35.477 72.2397 35.477 71.583ZM44.7095 46.6235H44.7225C47.3361 46.6235 49.9275 47.4859 52.0203 49.0515C53.8065 50.3876 55.2544 51.4683 56.3234 52.2627C56.9684 52.7425 57.1043 53.6649 56.6259 54.3188L56.5868 54.3723C56.1484 54.9713 55.3162 55.1253 54.6926 54.7232L50.1206 51.7759C49.5258 51.3929 48.7421 51.519 48.2981 52.07C47.8537 52.6206 47.896 53.4131 48.3963 53.9134L57.5906 63.1078C57.7903 63.3074 57.9001 63.5727 57.9001 63.8552C57.9001 64.1377 57.7903 64.4029 57.5906 64.6026C57.391 64.8023 57.1252 64.9126 56.8427 64.9126C56.6026 64.9126 56.3746 64.832 56.1889 64.685L51.5745 60.0706C51.5428 60.039 51.5093 60.0096 51.4749 59.9822L51.0034 59.5107C50.5381 59.0458 49.7837 59.0453 49.3183 59.5107C48.8533 59.9757 48.8533 60.7301 49.3183 61.1955L54.4106 66.2878C54.4632 66.3404 54.5181 66.3906 54.5735 66.4395L55.918 67.784C56.1177 67.9837 56.2275 68.249 56.2275 68.5314C56.2275 68.8139 56.1177 69.0792 55.918 69.2789C55.7183 69.4785 55.4526 69.5888 55.1701 69.5888C54.8881 69.5888 54.6223 69.4785 54.4227 69.2789L53.0777 67.9339C53.0293 67.879 52.9795 67.8245 52.9265 67.7715L48.4 63.245C48.3679 63.2134 48.3344 63.1841 48.3 63.1566L47.8285 62.6852C47.3636 62.2198 46.6092 62.2198 46.1438 62.6852C45.6784 63.1501 45.6784 63.9045 46.1438 64.3699L51.3236 69.5497C51.6508 69.9644 51.6243 70.5694 51.2417 70.952C50.8294 71.3638 50.1588 71.3638 49.7464 70.952L48.2423 69.4478C48.1934 69.392 48.1431 69.3375 48.0906 69.2849L45.2256 66.4195C45.1935 66.3878 45.16 66.3585 45.1255 66.3311L44.6541 65.8596C44.1892 65.3942 43.4348 65.3942 42.9694 65.8596C42.504 66.325 42.504 67.0794 42.9694 67.5448L46.4877 71.0632C46.6348 71.2489 46.7153 71.4769 46.7153 71.7171C46.7153 71.9996 46.6055 72.2653 46.4054 72.465C46.2057 72.6646 45.9404 72.7744 45.6579 72.7744C45.3754 72.7744 45.1102 72.6646 44.9105 72.465L38.6701 66.2245C38.6696 66.224 38.6691 66.2236 38.6691 66.2231L35.7395 63.2939C33.9068 61.4607 32.8573 58.9229 32.861 56.3312L32.8638 54.5994L40.8351 46.6282L44.7095 46.6235ZM31.3438 52.749L28.8796 50.2852L36.2942 42.8701L38.7585 45.3344L31.3438 52.749ZM62.8319 38.6807L61.4343 37.2831C60.9689 36.8182 60.2145 36.8182 59.7496 37.2831L57.1606 39.8721L54.5716 37.2831C54.3389 37.0504 54.0341 36.934 53.7293 36.934C53.4244 36.934 53.1196 37.0504 52.8869 37.2831L51.4893 38.6807V29.4072H62.8319V38.6807Z" fill="white"/>
<path d="M73.602 60.7598H65.977C65.3189 60.7598 64.7856 61.2931 64.7856 61.9512C64.7856 62.6092 65.3189 63.1426 65.977 63.1426H73.602C74.26 63.1426 74.7934 62.6092 74.7934 61.9512C74.7934 61.2931 74.26 60.7598 73.602 60.7598Z" fill="white"/>
<path d="M73.602 65.6738H68.4394C67.7813 65.6738 67.248 66.2072 67.248 66.8652C67.248 67.5228 67.7813 68.0566 68.4394 68.0566H73.602C74.2601 68.0566 74.7934 67.5228 74.7934 66.8652C74.7934 66.2072 74.2601 65.6738 73.602 65.6738Z" fill="white"/>
<path d="M63.6738 65.6736C63.3596 65.6736 63.0534 65.8011 62.8319 66.0226C62.6089 66.2442 62.4824 66.5518 62.4824 66.865C62.4824 67.1787 62.6089 67.4858 62.8319 67.7074C63.0534 67.9289 63.3606 68.0564 63.6738 68.0564C63.9874 68.0564 64.2946 67.9289 64.5161 67.7074C64.7381 67.4858 64.8652 67.1787 64.8652 66.865C64.8652 66.5518 64.7381 66.2442 64.5161 66.0226C64.2946 65.8011 63.9874 65.6736 63.6738 65.6736Z" fill="white"/>
<path d="M80.0356 38.4604C79.7224 38.4604 79.4148 38.588 79.1933 38.8095C78.9717 39.0315 78.8442 39.3386 78.8442 39.6519C78.8442 39.9655 78.9717 40.2727 79.1933 40.4942C79.4148 40.7157 79.7224 40.8433 80.0356 40.8433C80.3488 40.8433 80.6565 40.7157 80.878 40.4942C81.0995 40.2727 81.227 39.9655 81.227 39.6519C81.227 39.3386 81.0995 39.0315 80.878 38.8095C80.6565 38.588 80.3488 38.4604 80.0356 38.4604Z" fill="white"/>
</g>
<defs>
<clipPath id="clip0">
<rect width="61" height="61" fill="white" transform="translate(20.3461 19.6377)"/>
</clipPath>
</defs>
</svg>
