<svg width="101" height="101" viewBox="0 0 101 101" fill="none" xmlns="http://www.w3.org/2000/svg">
<circle cx="50.8086" cy="50.0015" r="50" fill="#CCCCCC"/>
<path d="M50.8086 61.439C50.4211 62.6206 49.025 63.6699 46.9113 64.3276C41.5436 65.998 38.2227 68.3808 37.5795 70.9702H64.0376C63.3942 68.3808 60.0735 65.998 54.7058 64.3276C52.5921 63.6699 51.196 62.6206 50.8086 61.439Z" fill="white"/>
<path d="M39.383 34.7515C40.983 37.7991 43.5445 40.5274 46.9115 42.6803C47.9443 43.337 48.8258 44.2057 49.4977 45.2287C50.1695 46.2518 50.6163 47.4059 50.8085 48.6147C51.0008 47.4059 51.4476 46.2518 52.1194 45.2287C52.7913 44.2057 53.6728 43.337 54.7056 42.6803C58.0726 40.5274 60.6341 37.7991 62.2341 34.7515H39.383Z" fill="white"/>
<path d="M56.7595 45.8919C63.5812 41.5306 67.9648 34.7466 67.9648 27.1265C68.4704 27.1265 68.9552 26.9256 69.3127 26.5681C69.6702 26.2106 69.8711 25.7258 69.8711 25.2202V22.3608H31.7461V25.1011C31.7463 25.6173 31.9438 26.1139 32.2982 26.4893C32.6525 26.8647 33.137 27.0905 33.6523 27.1204V27.1265C33.6523 34.7466 38.036 41.5306 44.8576 45.8919C47.8551 47.8084 47.8551 52.1945 44.8576 54.111C38.036 58.4724 33.6523 65.2564 33.6523 72.8765V72.8825C33.137 72.9125 32.6525 73.1382 32.2982 73.5136C31.9438 73.889 31.7463 74.3856 31.7461 74.9019V77.6421H69.8711V74.7827C69.8711 74.2771 69.6702 73.7923 69.3127 73.4348C68.9552 73.0773 68.4704 72.8765 67.9648 72.8765C67.9648 65.2564 63.5812 58.4724 56.7595 54.111C53.7621 52.1945 53.7621 47.8084 56.7595 45.8919ZM52.6052 50.0015C52.6021 51.1406 52.8872 52.262 53.434 53.2613C53.9809 54.2607 54.7716 55.1054 55.7326 55.717C62.2949 59.9125 66.0586 66.1671 66.0586 72.8765H35.5586C35.5586 66.1671 39.3222 59.9125 45.8845 55.717C46.8434 55.1031 47.6324 54.2579 48.179 53.2591C48.7255 52.2603 49.012 51.14 49.012 50.0015C49.012 48.8629 48.7255 47.7426 48.179 46.7438C47.6324 45.745 46.8434 44.8998 45.8845 44.2859C39.3222 40.0904 35.5586 33.8359 35.5586 27.1265H66.0586C66.0586 33.8359 62.2949 40.0904 55.7326 44.2859C54.7716 44.8975 53.9809 45.7423 53.434 46.7416C52.8872 47.7409 52.6021 48.8623 52.6052 50.0015Z" fill="white"/>
<path d="M50.8086 53.7528C51.0455 53.7528 51.2728 53.6587 51.4404 53.4911C51.608 53.3236 51.7021 53.0963 51.7021 52.8593V51.9077C51.7021 51.6707 51.608 51.4434 51.4404 51.2759C51.2728 51.1083 51.0455 51.0142 50.8086 51.0142C50.5716 51.0142 50.3443 51.1083 50.1767 51.2759C50.0092 51.4434 49.915 51.6707 49.915 51.9077V52.8593C49.915 53.0963 50.0092 53.3236 50.1767 53.4911C50.3443 53.6587 50.5716 53.7528 50.8086 53.7528Z" fill="white"/>
<path d="M49.915 57.6249C49.915 57.8619 50.0092 58.0892 50.1767 58.2568C50.3443 58.4243 50.5716 58.5185 50.8086 58.5185C51.0455 58.5185 51.2728 58.4243 51.4404 58.2568C51.608 58.0892 51.7021 57.8619 51.7021 57.6249V56.6733C51.7021 56.4364 51.608 56.2091 51.4404 56.0415C51.2728 55.8739 51.0455 55.7798 50.8086 55.7798C50.5716 55.7798 50.3443 55.8739 50.1767 56.0415C50.0092 56.2091 49.915 56.4364 49.915 56.6733V57.6249Z" fill="white"/>
</svg>
