<svg width="101" height="101" viewBox="0 0 101 101" fill="none" xmlns="http://www.w3.org/2000/svg">
<circle cx="50.8086" cy="50.6991" r="50" fill="#CCCCCC"/>
<g clip-path="url(#clip0)">
<path d="M77.0383 47.7639L75.4586 41.4453C75.8905 41.3535 76.2146 40.9704 76.2146 40.5113V39.4926C76.2146 37.2806 74.415 35.4811 72.2031 35.4811H65.008V33.3797C65.008 32.2912 64.1225 31.4058 63.0341 31.4058H26.3576C25.2691 31.4058 24.3836 32.2912 24.3836 33.3797V50.6992C24.3836 51.2266 24.8112 51.6543 25.3388 51.6543C25.8662 51.6543 26.2939 51.2267 26.2939 50.6992V33.3797C26.2939 33.3445 26.3224 33.3161 26.3576 33.3161H63.0339C63.0691 33.3161 63.0976 33.3445 63.0976 33.3797V50.6994C63.0976 51.2268 63.5252 51.6545 64.0527 51.6545C64.5801 51.6545 65.0079 51.227 65.0079 50.6994V49.6166H76.2749C76.2758 49.6166 76.2765 49.6169 76.2774 49.6169C76.2783 49.6169 76.2792 49.6168 76.28 49.6168C77.6664 49.6177 78.8437 50.5277 79.248 51.7817H76.2781C75.7507 51.7817 75.3229 52.2093 75.3229 52.7368V54.7744C75.3229 56.4246 76.6654 57.7671 78.3156 57.7671H79.3981V61.9695H76.9007C76.0803 59.6006 73.8284 57.8943 71.1841 57.8943C68.5398 57.8943 66.2878 59.6006 65.4675 61.9695H65.0076V54.7742C65.0076 54.2468 64.58 53.8191 64.0525 53.8191C63.525 53.8191 63.0973 54.2467 63.0973 54.7742V61.9693H43.2809C42.4605 59.6004 40.2086 57.8941 37.5643 57.8941C34.92 57.8941 32.668 59.6004 31.8477 61.9693H26.3576C26.3224 61.9693 26.2939 61.9408 26.2939 61.9056V59.8044H30.4328C30.9602 59.8044 31.3879 59.3768 31.3879 58.8492C31.3879 58.3217 30.9603 57.8941 30.4328 57.8941H21.2637C20.7363 57.8941 20.3086 58.3217 20.3086 58.8492C20.3086 59.3768 20.7362 59.8044 21.2637 59.8044H24.3838V61.9056C24.3838 62.9941 25.2692 63.8796 26.3577 63.8796H31.517C31.5167 63.9008 31.5153 63.9219 31.5153 63.9432C31.5153 67.2786 34.229 69.9922 37.5643 69.9922C40.8996 69.9922 43.6133 67.2786 43.6133 63.9432C43.6133 63.9217 43.6119 63.9008 43.6116 63.8796H65.1368C65.1365 63.9008 65.1351 63.9219 65.1351 63.9432C65.1351 67.2786 67.8488 69.9922 71.1841 69.9922C74.5195 69.9922 77.2331 67.2786 77.2331 63.9432C77.2331 63.9217 77.2317 63.9008 77.2314 63.8796H80.3533C80.8807 63.8796 81.3084 63.452 81.3084 62.9244V52.7366C81.3086 50.2213 79.4527 48.1314 77.0383 47.7639ZM65.008 37.3913H72.2031C73.3618 37.3913 74.3044 38.3339 74.3044 39.4926V39.5562H65.008V37.3913ZM65.008 47.7065V41.4664H73.495L75.055 47.7065H65.008ZM37.5643 68.0822C35.2822 68.0822 33.4255 66.2257 33.4255 63.9434C33.4255 61.6612 35.2822 59.8046 37.5643 59.8046C39.8464 59.8046 41.7031 61.6612 41.7031 63.9434C41.7031 66.2257 39.8464 68.0822 37.5643 68.0822ZM71.1843 68.0822C68.9022 68.0822 67.0455 66.2257 67.0455 63.9434C67.0455 61.6612 68.9022 59.8046 71.1843 59.8046C73.4665 59.8046 75.3232 61.6612 75.3232 63.9434C75.3232 66.2257 73.4665 68.0822 71.1843 68.0822ZM79.3984 55.8568H78.3159C77.719 55.8568 77.2334 55.3711 77.2334 54.7742V53.6917H79.3983V55.8568H79.3984Z" fill="white"/>
<path d="M37.5643 61.9695C36.4758 61.9695 35.5904 62.8549 35.5904 63.9434C35.5904 65.0319 36.4758 65.9173 37.5643 65.9173C38.6528 65.9173 39.5382 65.0319 39.5382 63.9434C39.5382 62.8549 38.6528 61.9695 37.5643 61.9695Z" fill="white"/>
<path d="M71.1844 61.9695C70.0959 61.9695 69.2104 62.8549 69.2104 63.9434C69.2104 65.0319 70.0959 65.9173 71.1844 65.9173C72.2728 65.9173 73.1583 65.0319 73.1583 63.9434C73.1583 62.8549 72.2728 61.9695 71.1844 61.9695Z" fill="white"/>
<path d="M59.9776 57.8943H45.7146C45.1872 57.8943 44.7595 58.3219 44.7595 58.8494C44.7595 59.377 45.1871 59.8046 45.7146 59.8046H59.9776C60.5051 59.8046 60.9328 59.377 60.9328 58.8494C60.9328 58.3219 60.5052 57.8943 59.9776 57.8943Z" fill="white"/>
<path d="M35.5268 53.8191H23.3013C22.7738 53.8191 22.3461 54.2467 22.3461 54.7742C22.3461 55.3018 22.7737 55.7294 23.3013 55.7294H35.5268C36.0542 55.7294 36.4819 55.3018 36.4819 54.7742C36.4819 54.2467 36.0542 53.8191 35.5268 53.8191Z" fill="white"/>
<path d="M53.5215 40.8545C53.1486 40.4816 52.5437 40.4816 52.1708 40.8546L43.6771 49.3483L39.2585 44.9297C38.8855 44.5567 38.2807 44.5567 37.9078 44.9297C37.5348 45.3027 37.5348 45.9074 37.9078 46.2804L43.0018 51.3744C43.1882 51.5609 43.4327 51.6541 43.6771 51.6541C43.9214 51.6541 44.166 51.5609 44.3523 51.3744L53.5214 42.2053C53.8944 41.8322 53.8944 41.2275 53.5215 40.8545Z" fill="white"/>
</g>
<defs>
<clipPath id="clip0">
<rect width="61" height="61" fill="white" transform="translate(20.3086 20.1991)"/>
</clipPath>
</defs>
</svg>
