<svg width="150" height="151" viewBox="0 0 150 151" fill="none" xmlns="http://www.w3.org/2000/svg">
<circle cx="75" cy="75.697" r="75" fill="#4B8257"/>
<path d="M29.4613 92.6243C29.7723 93.2053 30.378 93.5681 31.037 93.5681H39.9726V119.66C39.9726 120.647 40.7727 121.447 41.7597 121.447H108.24C109.227 121.447 110.027 120.647 110.027 119.66V93.5681H118.963C119.622 93.5681 120.228 93.2053 120.539 92.6243C120.849 92.0432 120.815 91.3382 120.45 90.7897L109.727 74.7057C109.396 74.2085 108.838 73.9099 108.24 73.9099H101.449C100.462 73.9099 99.662 74.71 99.662 75.697C99.662 76.684 100.462 77.4841 101.449 77.4841H107.284L115.624 89.9939H86.679L78.3391 77.4841H85.3652C86.3522 77.4841 87.1523 76.684 87.1523 75.697C87.1523 74.71 86.3522 73.9099 85.3652 73.9099C83.3243 73.9099 43.7348 73.9099 41.7597 73.9099C41.1621 73.9099 40.6042 74.2085 40.2728 74.7057L29.5502 90.7897C29.1845 91.3382 29.1504 92.0432 29.4613 92.6243V92.6243ZM43.5468 93.5681H64.2773C64.8749 93.5681 65.4328 93.2695 65.7642 92.7723L73.2128 81.5993V117.873H43.5468V93.5681ZM84.2357 92.7723C84.567 93.2695 85.1252 93.5681 85.7226 93.5681H106.453V117.873H76.787V81.5993L84.2357 92.7723ZM42.7162 77.4841H71.6607L63.3208 89.9939H34.3763L42.7162 77.4841Z" fill="white"/>
<path d="M64.2773 34.4202C62.8176 32.2749 60.2976 29.947 56.2354 29.947C50.5086 29.947 46.4062 34.5622 46.4062 40.1282C46.4062 46.3078 51.4075 50.3665 58.978 56.5099C60.3046 57.5863 61.6762 58.6995 63.1334 59.9136C63.4647 60.1897 63.871 60.3277 64.2773 60.3277C64.6837 60.3277 65.0899 60.1897 65.4213 59.9136C66.8785 58.6995 68.2501 57.5863 69.5767 56.5099C77.1472 50.3665 82.1484 46.3078 82.1484 40.1282C82.1484 34.5578 78.0418 29.947 72.3193 29.947C68.2571 29.947 65.7372 32.2749 64.2773 34.4202ZM78.5742 40.1282C78.5742 44.6053 74.0989 48.2372 67.3245 53.7345C66.34 54.5334 65.3308 55.3524 64.2773 56.2202C63.2238 55.3526 62.2147 54.5335 61.2301 53.7345C54.4559 48.2372 49.9805 44.6054 49.9805 40.1282C49.9805 36.3617 52.6695 33.5212 56.2354 33.5212C60.901 33.5212 62.4963 38.716 62.5601 38.9305C62.7805 39.6959 63.4808 40.2229 64.2773 40.2229C65.0739 40.2229 65.7742 39.6957 65.9946 38.9305C66.0103 38.8763 67.6069 33.5212 72.3193 33.5212C75.8852 33.5212 78.5742 36.3617 78.5742 40.1282Z" fill="white"/>
<path d="M96.4453 65.6892C96.8655 65.6892 97.2854 65.5418 97.6223 65.2469C98.5931 64.3973 99.5081 63.6176 100.393 62.8636C105.364 58.6273 108.955 55.5667 108.955 51.0135C108.955 46.7164 105.815 43.3503 101.807 43.3503C99.2557 43.3503 97.5455 44.6476 96.4453 46.0371C95.3452 44.6476 93.6351 43.3503 91.084 43.3503C87.0755 43.3503 83.9355 46.7164 83.9355 51.0135C83.9355 55.5667 87.5271 58.6273 92.4979 62.8636C93.3827 63.6176 94.2976 64.3973 95.2683 65.2469C95.6052 65.5418 96.0253 65.6892 96.4453 65.6892ZM87.5098 51.0135C87.5098 49.0312 88.7624 46.9246 91.084 46.9246C93.7182 46.9246 94.6798 50.1553 94.7241 50.3093C94.9397 51.0814 95.642 51.6202 96.4441 51.6202C97.249 51.6202 97.9533 51.0867 98.1663 50.3104C98.2058 50.1723 99.1655 46.9246 101.807 46.9246C104.128 46.9246 105.381 49.0312 105.381 51.0135C105.381 53.9164 102.631 56.2602 98.0744 60.1431C97.5446 60.5947 97.0038 61.0554 96.4453 61.5361C95.8868 61.0554 95.3462 60.5947 94.8162 60.1431C90.2599 56.2602 87.5098 53.9164 87.5098 51.0135V51.0135Z" fill="white"/>
<path d="M93.407 77.4841C94.394 77.4841 95.1941 76.684 95.1941 75.697C95.1941 74.71 94.394 73.9099 93.407 73.9099C92.42 73.9099 91.6199 74.71 91.6199 75.697C91.6199 76.684 92.42 77.4841 93.407 77.4841Z" fill="white"/>
</svg>
