<svg width="101" height="101" viewBox="0 0 101 101" fill="none" xmlns="http://www.w3.org/2000/svg">
<g clip-path="url(#clip0)">
<path d="M50.8461 0.988525C23.275 0.988525 0.84613 23.4174 0.84613 50.9885C0.84613 78.5596 23.275 100.989 50.8461 100.989C78.4172 100.989 100.846 78.5596 100.846 50.9885C100.846 23.4174 78.4172 0.988525 50.8461 0.988525ZM76.1879 40.3928L49.1043 67.4756C48.2918 68.2882 47.2252 68.6971 46.1586 68.6971C45.092 68.6971 44.0255 68.2882 43.2129 67.4756L29.6715 53.9342C28.0419 52.3054 28.0419 49.6717 29.6715 48.0428C31.3004 46.4132 33.9333 46.4132 35.5629 48.0428L46.1586 58.6385L70.2965 34.5014C71.9254 32.8718 74.5583 32.8718 76.1879 34.5014C77.8168 36.1303 77.8168 38.7632 76.1879 40.3928Z" fill="#4B8257"/>
</g>
<defs>
<clipPath id="clip0">
<rect width="100" height="100" fill="white" transform="translate(0.84613 0.988525)"/>
</clipPath>
</defs>
</svg>
