<svg width="100" height="101" viewBox="0 0 100 101" fill="none" xmlns="http://www.w3.org/2000/svg">
<circle cx="50" cy="50.3467" r="50" fill="#F95D4A"/>
<path d="M50 61.7842C49.6125 62.9658 48.2165 64.0151 46.1028 64.6729C40.735 66.3432 37.4141 68.726 36.771 71.3154H63.229C62.5857 68.726 59.265 66.3432 53.8972 64.6729C51.7835 64.0151 50.3874 62.9658 50 61.7842Z" fill="white"/>
<path d="M38.5744 35.0967C40.1745 38.1443 42.736 40.8726 46.1029 43.0255C47.1357 43.6822 48.0172 44.5509 48.6891 45.5739C49.3609 46.597 49.8078 47.7511 50 48.9599C50.1922 47.7511 50.639 46.597 51.3109 45.5739C51.9827 44.5509 52.8642 43.6822 53.8971 43.0255C57.264 40.8726 59.8255 38.1443 61.4256 35.0967H38.5744Z" fill="white"/>
<path d="M55.951 46.2372C62.7726 41.8758 67.1562 35.0918 67.1562 27.4717C67.6618 27.4717 68.1467 27.2708 68.5042 26.9134C68.8617 26.5559 69.0625 26.071 69.0625 25.5654V22.7061H30.9375V25.4463C30.9377 25.9625 31.1352 26.4591 31.4896 26.8345C31.844 27.2099 32.3284 27.4357 32.8438 27.4656V27.4717C32.8438 35.0918 37.2274 41.8758 44.049 46.2372C47.0465 48.1537 47.0465 52.5397 44.049 54.4562C37.2274 58.8176 32.8438 65.6016 32.8438 73.2217V73.2278C32.3284 73.2577 31.844 73.4835 31.4896 73.8588C31.1352 74.2342 30.9377 74.7308 30.9375 75.2471V77.9873H69.0625V75.1279C69.0625 74.6224 68.8617 74.1375 68.5042 73.78C68.1467 73.4225 67.6618 73.2217 67.1562 73.2217C67.1562 65.6016 62.7726 58.8176 55.951 54.4562C52.9535 52.5397 52.9535 48.1537 55.951 46.2372ZM51.7966 50.3467C51.7935 51.4858 52.0787 52.6072 52.6255 53.6066C53.1723 54.6059 53.963 55.4506 54.9241 56.0622C61.4863 60.2577 65.25 66.5123 65.25 73.2217H34.75C34.75 66.5123 38.5137 60.2577 45.0759 56.0622C46.0348 55.4484 46.8239 54.6031 47.3704 53.6043C47.9169 52.6055 48.2034 51.4852 48.2034 50.3467C48.2034 49.2081 47.9169 48.0879 47.3704 47.0891C46.8239 46.0903 46.0348 45.245 45.0759 44.6311C38.5137 40.4356 34.75 34.1811 34.75 27.4717H65.25C65.25 34.1811 61.4863 40.4356 54.9241 44.6311C53.963 45.2427 53.1723 46.0875 52.6255 47.0868C52.0787 48.0861 51.7935 49.2075 51.7966 50.3467Z" fill="white"/>
<path d="M50 54.0981C50.237 54.0981 50.4643 54.0039 50.6318 53.8363C50.7994 53.6688 50.8936 53.4415 50.8936 53.2045V52.2529C50.8936 52.0159 50.7994 51.7887 50.6318 51.6211C50.4643 51.4535 50.237 51.3594 50 51.3594C49.763 51.3594 49.5357 51.4535 49.3682 51.6211C49.2006 51.7887 49.1064 52.0159 49.1064 52.2529V53.2045C49.1064 53.4415 49.2006 53.6688 49.3682 53.8363C49.5357 54.0039 49.763 54.0981 50 54.0981Z" fill="white"/>
<path d="M49.1064 57.9701C49.1064 58.2071 49.2006 58.4344 49.3682 58.602C49.5357 58.7695 49.763 58.8637 50 58.8637C50.237 58.8637 50.4643 58.7695 50.6318 58.602C50.7994 58.4344 50.8936 58.2071 50.8936 57.9701V57.0186C50.8936 56.7816 50.7994 56.5543 50.6318 56.3867C50.4643 56.2191 50.237 56.125 50 56.125C49.763 56.125 49.5357 56.2191 49.3682 56.3867C49.2006 56.5543 49.1064 56.7816 49.1064 57.0186V57.9701Z" fill="white"/>
</svg>
