<svg width="100" height="101" viewBox="0 0 100 101" fill="none" xmlns="http://www.w3.org/2000/svg">
<circle cx="50" cy="50.1377" r="50" fill="#F95D4A"/>
<g clip-path="url(#clip0)">
<path d="M76.8067 27.0244H35.8223C33.8513 27.0244 32.2481 28.6277 32.2481 30.5986V36.3002L21.4146 25.4672C20.9497 25.0018 20.1953 25.0018 19.7299 25.4672C19.2645 25.9321 19.2645 26.6865 19.7299 27.1519L33.7634 41.1854L26.3487 48.6L21.4146 43.6659C20.9497 43.201 20.1953 43.201 19.7299 43.6659C19.2645 44.1313 19.2645 44.8857 19.7299 45.3511L29.6335 55.2547L29.6321 56.327C29.6279 59.0635 30.5689 61.7502 32.2481 63.8933V71.583C32.2481 73.554 33.8513 75.1573 35.8223 75.1573H76.8067C78.7776 75.1573 80.3809 73.554 80.3809 71.583V44.4176C80.3809 43.7595 79.8475 43.2262 79.1895 43.2262C78.5314 43.2262 77.9981 43.7595 77.9981 44.4176V71.583C77.9981 72.2397 77.4638 72.7744 76.8067 72.7744H51.9337C51.9835 72.7302 52.0324 72.6846 52.0803 72.6367C52.3856 72.3314 52.6206 71.9823 52.7868 71.6096C53.2582 71.8455 53.7813 71.9712 54.324 71.9712C55.2427 71.9712 56.1064 71.6133 56.7566 70.9636C57.4063 70.3144 57.7642 69.4501 57.7642 68.5314C57.7642 67.9893 57.6385 67.4666 57.403 66.9957C57.7805 66.8262 58.1281 66.5889 58.4292 66.2878C59.0789 65.6381 59.4368 64.7739 59.4368 63.8552C59.4368 62.936 59.0789 62.0723 58.4292 61.4226L54.3258 57.3192C55.5894 57.4113 56.8674 56.8678 57.6636 55.7797L57.7027 55.7262C58.9509 54.0196 58.5902 51.6079 56.8985 50.3504C55.8314 49.5574 54.3859 48.4786 52.602 47.1434C50.0996 45.2716 47.0015 44.2412 43.8764 44.2412C43.8713 44.2412 43.8661 44.2412 43.8605 44.2412L40.1928 44.2449L34.6309 38.683V30.5986C34.6309 29.9415 35.1651 29.4072 35.8223 29.4072H48.2604V41.5568C48.2604 42.0389 48.5508 42.4731 48.9962 42.6574C49.4411 42.8422 49.9535 42.7403 50.2941 42.3996L52.8831 39.8106L55.4721 42.3991C55.937 42.8645 56.6914 42.8645 57.1568 42.3991L59.7458 39.8106L62.3343 42.3991C62.5624 42.6272 62.8672 42.7482 63.1772 42.7482C63.3307 42.7482 63.4857 42.7184 63.6328 42.6574C64.0782 42.4731 64.3686 42.0389 64.3686 41.5568V29.4072H76.8067C77.4638 29.4072 77.9981 29.9415 77.9981 30.5986V34.8863C77.9981 35.5444 78.5314 36.0777 79.1895 36.0777C79.8475 36.0777 80.3809 35.5444 80.3809 34.8863V30.5986C80.3809 28.6277 78.7776 27.0244 76.8067 27.0244ZM34.6309 71.583V66.4013L38.5239 70.2944C38.5243 70.2948 38.5248 70.2953 38.5248 70.2953L41.004 72.7744H35.8223C35.1651 72.7744 34.6309 72.2397 34.6309 71.583ZM43.8633 46.6235H43.8764C46.49 46.6235 49.0813 47.4859 51.1742 49.0515C52.9604 50.3876 54.4082 51.4683 55.4772 52.2627C56.1223 52.7425 56.2582 53.6649 55.7797 54.3188L55.7406 54.3723C55.3022 54.9713 54.4701 55.1253 53.8465 54.7232L49.2745 51.7759C48.6797 51.3929 47.896 51.519 47.452 52.07C47.0075 52.6206 47.0499 53.4131 47.5502 53.9134L56.7445 63.1078C56.9441 63.3074 57.054 63.5727 57.054 63.8552C57.054 64.1377 56.9441 64.4029 56.7445 64.6026C56.5448 64.8023 56.2791 64.9126 55.9966 64.9126C55.7565 64.9126 55.5284 64.832 55.3427 64.685L50.7284 60.0706C50.6967 60.039 50.6632 60.0096 50.6288 59.9822L50.1573 59.5107C49.6919 59.0458 48.9375 59.0453 48.4721 59.5107C48.0072 59.9757 48.0072 60.7301 48.4721 61.1955L53.5645 66.2878C53.6171 66.3404 53.672 66.3906 53.7274 66.4395L55.0719 67.784C55.2715 67.9837 55.3814 68.249 55.3814 68.5314C55.3814 68.8139 55.2715 69.0792 55.0719 69.2789C54.8722 69.4785 54.6065 69.5888 54.324 69.5888C54.042 69.5888 53.7762 69.4785 53.5766 69.2789L52.2316 67.9339C52.1832 67.879 52.1334 67.8245 52.0803 67.7715L47.5539 63.245C47.5218 63.2134 47.4883 63.1841 47.4538 63.1566L46.9824 62.6852C46.5175 62.2198 45.7631 62.2198 45.2977 62.6852C44.8323 63.1501 44.8323 63.9045 45.2977 64.3699L50.4775 69.5497C50.8047 69.9644 50.7782 70.5694 50.3956 70.952C49.9833 71.3638 49.3126 71.3638 48.9003 70.952L47.3961 69.4478C47.3473 69.392 47.297 69.3375 47.2444 69.2849L44.3795 66.4195C44.3473 66.3878 44.3138 66.3585 44.2794 66.3311L43.808 65.8596C43.343 65.3942 42.5886 65.3942 42.1232 65.8596C41.6578 66.325 41.6578 67.0794 42.1232 67.5448L45.6416 71.0632C45.7887 71.2489 45.8692 71.4769 45.8692 71.7171C45.8692 71.9996 45.7594 72.2653 45.5592 72.465C45.3596 72.6646 45.0943 72.7744 44.8118 72.7744C44.5293 72.7744 44.264 72.6646 44.0644 72.465L37.8239 66.2245C37.8235 66.224 37.823 66.2236 37.823 66.2231L34.8933 63.2939C33.0606 61.4607 32.0112 58.9229 32.0149 56.3312L32.0177 54.5994L39.9889 46.6282L43.8633 46.6235ZM30.4977 52.749L28.0335 50.2852L35.4481 42.8701L37.9124 45.3344L30.4977 52.749ZM61.9858 38.6807L60.5882 37.2831C60.1228 36.8182 59.3684 36.8182 58.9035 37.2831L56.3145 39.8721L53.7255 37.2831C53.4928 37.0504 53.188 36.934 52.8831 36.934C52.5783 36.934 52.2735 37.0504 52.0408 37.2831L50.6432 38.6807V29.4072H61.9858V38.6807Z" fill="white"/>
<path d="M72.7558 60.7598H65.1308C64.4728 60.7598 63.9394 61.2931 63.9394 61.9512C63.9394 62.6092 64.4728 63.1426 65.1308 63.1426H72.7558C73.4139 63.1426 73.9472 62.6092 73.9472 61.9512C73.9472 61.2931 73.4139 60.7598 72.7558 60.7598Z" fill="white"/>
<path d="M72.7559 65.6738H67.5933C66.9352 65.6738 66.4019 66.2072 66.4019 66.8652C66.4019 67.5228 66.9352 68.0566 67.5933 68.0566H72.7559C73.4139 68.0566 73.9473 67.5228 73.9473 66.8652C73.9473 66.2072 73.4139 65.6738 72.7559 65.6738Z" fill="white"/>
<path d="M62.8276 65.6736C62.5135 65.6736 62.2073 65.8011 61.9857 66.0226C61.7628 66.2442 61.6362 66.5518 61.6362 66.865C61.6362 67.1787 61.7628 67.4858 61.9857 67.7074C62.2073 67.9289 62.5144 68.0564 62.8276 68.0564C63.1413 68.0564 63.4485 67.9289 63.67 67.7074C63.892 67.4858 64.0191 67.1787 64.0191 66.865C64.0191 66.5518 63.892 66.2442 63.67 66.0226C63.4485 65.8011 63.1413 65.6736 62.8276 65.6736Z" fill="white"/>
<path d="M79.1895 38.4604C78.8763 38.4604 78.5687 38.588 78.3471 38.8095C78.1256 39.0315 77.9981 39.3386 77.9981 39.6519C77.9981 39.9655 78.1256 40.2727 78.3471 40.4942C78.5687 40.7157 78.8763 40.8433 79.1895 40.8433C79.5027 40.8433 79.8103 40.7157 80.0319 40.4942C80.2534 40.2727 80.3809 39.9655 80.3809 39.6519C80.3809 39.3386 80.2534 39.0315 80.0319 38.8095C79.8103 38.588 79.5027 38.4604 79.1895 38.4604Z" fill="white"/>
</g>
<defs>
<clipPath id="clip0">
<rect width="61" height="61" fill="white" transform="translate(19.5 19.6377)"/>
</clipPath>
</defs>
</svg>
