<svg width="100" height="101" viewBox="0 0 100 101" fill="none" xmlns="http://www.w3.org/2000/svg">
<circle cx="50" cy="50.0312" r="50" fill="#F95D4A"/>
<g clip-path="url(#clip0)">
<path d="M76.2298 47.096L74.6501 40.7774C75.082 40.6857 75.406 40.3025 75.406 39.8435V38.8247C75.406 36.6127 73.6064 34.8132 71.3946 34.8132H64.1994V32.7118C64.1994 31.6234 63.314 30.7379 62.2255 30.7379H25.549C24.4605 30.7379 23.5751 31.6234 23.5751 32.7118V50.0313C23.5751 50.5587 24.0027 50.9865 24.5302 50.9865C25.0577 50.9865 25.4854 50.5589 25.4854 50.0313V32.7118C25.4854 32.6767 25.5139 32.6482 25.549 32.6482H62.2254C62.2605 32.6482 62.289 32.6767 62.289 32.7118V50.0315C62.289 50.559 62.7166 50.9867 63.2441 50.9867C63.7716 50.9867 64.1993 50.5591 64.1993 50.0315V48.9488H75.4663C75.4673 48.9488 75.468 48.949 75.4688 48.949C75.4698 48.949 75.4706 48.9489 75.4714 48.9489C76.8579 48.9499 78.0351 49.8599 78.4395 51.1138H75.4695C74.9421 51.1138 74.5144 51.5414 74.5144 52.069V54.1065C74.5144 55.7567 75.8568 57.0992 77.5071 57.0992H78.5896V61.3017H76.0921C75.2717 58.9328 73.0199 57.2264 70.3755 57.2264C67.7312 57.2264 65.4792 58.9328 64.6589 61.3017H64.1991V54.1064C64.1991 53.579 63.7715 53.1512 63.2439 53.1512C62.7165 53.1512 62.2888 53.5788 62.2888 54.1064V61.3014H42.4723C41.6519 58.9325 39.4001 57.2262 36.7557 57.2262C34.1114 57.2262 31.8594 58.9325 31.0391 61.3014H25.549C25.5139 61.3014 25.4854 61.2729 25.4854 61.2378V59.1365H29.6242C30.1516 59.1365 30.5794 58.7089 30.5794 58.1814C30.5794 57.6538 30.1518 57.2262 29.6242 57.2262H20.4552C19.9277 57.2262 19.5 57.6538 19.5 58.1814C19.5 58.7089 19.9276 59.1365 20.4552 59.1365H23.5752V61.2378C23.5752 62.3263 24.4607 63.2117 25.5491 63.2117H30.7084C30.7082 63.2329 30.7067 63.254 30.7067 63.2753C30.7067 66.6108 33.4204 69.3243 36.7557 69.3243C40.0911 69.3243 42.8047 66.6108 42.8047 63.2753C42.8047 63.2539 42.8033 63.2329 42.8031 63.2117H64.3282C64.328 63.2329 64.3265 63.254 64.3265 63.2753C64.3265 66.6108 67.0402 69.3243 70.3755 69.3243C73.7109 69.3243 76.4246 66.6108 76.4246 63.2753C76.4246 63.2539 76.4231 63.2329 76.4229 63.2117H79.5447C80.0722 63.2117 80.4999 62.7841 80.4999 62.2566V52.0687C80.5 49.5534 78.6441 47.4636 76.2298 47.096ZM64.1994 36.7234H71.3946C72.5532 36.7234 73.4958 37.6661 73.4958 38.8247V38.8883H64.1994V36.7234ZM64.1994 47.0386V40.7985H72.6864L74.2464 47.0386H64.1994ZM36.7557 67.4144C34.4736 67.4144 32.6169 65.5578 32.6169 63.2756C32.6169 60.9933 34.4736 59.1368 36.7557 59.1368C39.0379 59.1368 40.8946 60.9933 40.8946 63.2756C40.8946 65.5578 39.0379 67.4144 36.7557 67.4144ZM70.3758 67.4144C68.0936 67.4144 66.237 65.5578 66.237 63.2756C66.237 60.9933 68.0936 59.1368 70.3758 59.1368C72.6579 59.1368 74.5146 60.9933 74.5146 63.2756C74.5146 65.5578 72.6579 67.4144 70.3758 67.4144ZM78.5898 55.1889H77.5073C76.9104 55.1889 76.4248 54.7033 76.4248 54.1064V53.0239H78.5897V55.1889H78.5898Z" fill="white"/>
<path d="M36.7558 61.3016C35.6673 61.3016 34.7818 62.1871 34.7818 63.2756C34.7818 64.364 35.6673 65.2495 36.7558 65.2495C37.8442 65.2495 38.7297 64.364 38.7297 63.2756C38.7297 62.1871 37.8442 61.3016 36.7558 61.3016Z" fill="white"/>
<path d="M70.3758 61.3016C69.2873 61.3016 68.4019 62.1871 68.4019 63.2756C68.4019 64.364 69.2873 65.2495 70.3758 65.2495C71.4643 65.2495 72.3497 64.364 72.3497 63.2756C72.3497 62.1871 71.4643 61.3016 70.3758 61.3016Z" fill="white"/>
<path d="M59.1691 57.2264H44.906C44.3786 57.2264 43.9509 57.654 43.9509 58.1816C43.9509 58.7091 44.3785 59.1367 44.906 59.1367H59.1691C59.6965 59.1367 60.1242 58.7091 60.1242 58.1816C60.1242 57.654 59.6966 57.2264 59.1691 57.2264Z" fill="white"/>
<path d="M34.7182 53.1512H22.4927C21.9653 53.1512 21.5375 53.5788 21.5375 54.1064C21.5375 54.634 21.9651 55.0615 22.4927 55.0615H34.7182C35.2456 55.0615 35.6733 54.634 35.6733 54.1064C35.6733 53.5788 35.2456 53.1512 34.7182 53.1512Z" fill="white"/>
<path d="M52.713 40.1866C52.3401 39.8137 51.7352 39.8137 51.3623 40.1868L42.8685 48.6804L38.4499 44.2619C38.0769 43.8888 37.4721 43.8888 37.0992 44.2619C36.7262 44.6349 36.7262 45.2395 37.0992 45.6125L42.1932 50.7065C42.3797 50.8931 42.6241 50.9863 42.8685 50.9863C43.1129 50.9863 43.3574 50.8931 43.5438 50.7065L52.7128 41.5375C53.0859 41.1643 53.0859 40.5597 52.713 40.1866Z" fill="white"/>
</g>
<defs>
<clipPath id="clip0">
<rect width="61" height="61" fill="white" transform="translate(19.5 19.5312)"/>
</clipPath>
</defs>
</svg>
