<svg width="95" height="45" viewBox="0 0 95 45" fill="none" xmlns="http://www.w3.org/2000/svg">
<g clip-path="url(#clip0)">
<path fill-rule="evenodd" clip-rule="evenodd" d="M30.1914 16.3254C45.339 23.7624 46.8835 24.5212 59.4401 17.8808C51.0095 21.0525 44.0622 21.4927 39.51 17.5311C44.2299 18.2387 48.2601 17.1598 51.9748 15.2695C49.4944 15.73 48.4732 14.5161 48.8313 12.1694C54.1131 14.319 57.6414 12.8351 61.4666 10.055C58.3058 11.1716 54.7109 12.4071 51.6846 11.0474C47.4932 9.16656 43.6294 9.28268 41.8533 14.1273C42.4818 14.0165 44.4283 12.0088 46.0766 13.0579C47.3934 13.8964 47.1338 15.0103 44.604 15.8785C39.3556 17.6783 36.5942 15.4181 34.0658 14.4135C33.1977 14.0678 32.2724 13.7181 31.2858 13.4211C27.7628 12.3571 23.4623 11.9494 18.2311 14.7348C18.0913 14.8091 5.52801 23.5963 -0.00141029 20.4152C-0.0533359 20.3855 3.62273 23.7057 9.86313 22.4378C11.2904 22.1475 12.9654 21.494 14.7095 20.5597C19.1059 18.2063 25.06 13.8059 30.1914 16.3254Z" fill="white"/>
<path fill-rule="evenodd" clip-rule="evenodd" d="M62.6476 9.68223C60.2204 8.68982 58.5707 9.01927 58.2712 9.07868C57.9716 9.13944 55.6003 10.0333 54.201 10.0495C52.8017 10.0657 49.0603 11.1283 45.5946 6.3877C42.1289 1.64709 47.1963 9.28526 52.3396 7.15057C57.483 5.01588 58.6972 3.50769 62.3453 3.83444C61.1151 2.82448 59.4641 3.06212 55.8426 4.1774C55.5045 4.28136 56.3699 1.97385 61.2189 1.32709C65.9775 0.692491 69.4951 2.93385 70.0423 3.879C70.5895 4.82415 71.2033 3.17284 68.9372 1.93739C66.6725 0.701942 65.5128 0.352236 65.5128 0.352236C65.5128 0.352236 66.4674 -0.75224 70.74 0.934179C75.0112 2.6206 72.9382 5.94078 82.8387 4.492C82.9865 6.26618 79.9561 7.04526 79.9561 7.04526C79.9561 7.04526 85.5921 8.07682 85.5787 10.0603C85.5654 12.0451 91.4357 12.8782 93.4515 14.9265C95.4673 16.9747 95.1104 18.8515 94.6191 19.2661C94.1278 19.6806 92.7219 20.9282 92.646 21.0443C92.5701 21.1604 90.027 18.3614 86.9714 19.6455C85.3524 20.326 90.6089 21.2387 90.7141 22.0624L88.0432 22.7537C88.0432 22.7537 84.2087 18.3533 77.1495 20.2868C72.6093 21.5304 69.9744 23.3464 67.5406 28.3031C67.4167 28.5542 65.9615 32.27 65.839 32.5373L64.9097 32.5022C66.1798 26.6936 67.5179 21.8517 73.046 18.5194C67.4207 18.8164 68.8001 10.1494 72.5547 12.0005C75.0671 13.24 71.4137 12.4137 72.7158 15.3707C74.018 18.3277 78.2799 18.7435 84.1834 16.7736C84.2433 17.8753 81.876 18.6463 82.3021 18.5329C82.7282 18.4195 88.9073 17.4176 92.1893 19.6104C95.4712 21.8031 92.132 12.4731 79.4502 11.2836C76.6409 10.7665 80.4661 8.86535 80.4661 8.86535C80.4661 8.86535 74.7476 5.07124 71.5774 5.47496C68.4073 5.87867 71.8078 7.6056 71.8078 7.6056L69.3926 8.01606C69.3926 8.01606 64.5289 1.24068 57.0755 7.26399C61.1763 6.48897 63.2587 6.998 65.9668 8.95041C64.4437 9.45404 62.6476 9.68223 62.6476 9.68223Z" fill="white"/>
<path fill-rule="evenodd" clip-rule="evenodd" d="M15.8081 14.5796C15.8081 14.5796 25.8724 7.95541 31.8851 11.7657C30.2141 6.76182 20.8555 7.52604 15.651 14.0314C14.8388 15.044 15.8334 14.5742 15.8081 14.5796Z" fill="white"/>
<path d="M13.9094 38.0918V23.2881H16.74C19.0847 23.2881 21.641 23.9942 21.641 26.3949C21.641 27.3158 21.3241 27.9585 20.1405 28.8807C21.2389 29.437 21.6823 29.8447 21.9992 30.316C22.5491 31.1301 22.8446 32.0726 22.8446 33.1865C22.8446 36.7646 20.8794 38.0918 17.2673 38.0918H13.9094ZM15.2608 24.5951V28.4945H16.2328C17.7333 28.4945 18.8104 28.2812 19.4229 27.8734C20.0566 27.4238 20.2896 27.1875 20.2896 26.4165C20.2896 24.7882 17.6068 24.5951 16.6349 24.5951H15.2608ZM17.4577 29.8015H15.2608V36.7848H17.4577C18.7039 36.7848 19.6545 36.5499 20.267 36.0773C21.7462 34.9418 21.6823 31.6216 20.2457 30.5077C19.6346 30.0365 18.7052 29.8015 17.4577 29.8015Z" fill="white"/>
<path d="M23.9219 32.5657C23.9219 29.3522 26.4569 26.6099 29.8161 26.6099C31.4857 26.6099 32.901 27.1878 34.0833 28.3233C35.2656 29.4588 35.8794 30.8077 35.8794 32.4144C35.8794 35.6928 33.3657 38.4567 29.9213 38.4567C26.4995 38.4567 23.9219 35.8426 23.9219 32.5657ZM25.3798 32.5441C25.3798 35.0501 27.1759 37.1713 29.9213 37.1713C31.2314 37.1713 32.3298 36.7216 33.154 35.8224C33.9994 34.9015 34.4215 33.8079 34.4215 32.5225C34.4215 29.93 32.5841 27.8953 29.7948 27.8953C27.112 27.8953 25.3798 30.1663 25.3798 32.5441Z" fill="white"/>
<path d="M39.0467 38.135H37.6313V31.5797C37.6313 29.395 38.1599 28.0448 40.2303 27.1658C40.7376 26.9525 41.1596 26.8445 41.6669 26.8013V28.2798C39.723 28.5147 39.0467 29.3086 39.0467 31.3866V38.135Z" fill="white"/>
<path d="M54.1306 38.1351H52.7779V36.3785C51.1722 37.9636 49.8834 38.4348 48.2364 38.4348C44.7933 38.4348 42.2996 35.9288 42.2996 32.6073C42.2996 29.2439 44.8772 26.7163 48.3629 26.7163C50.1377 26.7163 52.1867 27.6156 53.1374 29.0508C53.6447 29.8218 53.9402 30.5293 54.0467 31.1504L54.1732 33.0785L54.1306 38.1351ZM43.7375 32.6721C43.7375 35.1565 45.6175 37.1926 48.279 37.1926C49.5252 37.1926 50.6449 36.6998 51.5104 35.7574C54.1945 32.8436 52.2506 27.9585 48.3203 27.9585C45.5962 27.9585 43.7375 30.1877 43.7375 32.6721Z" fill="white"/>
<path d="M57.8691 32.136V32.2643V38.0918H56.4751V23.2881H57.8691V32.136ZM57.8691 32.136V32.2643L62.1576 26.9296H63.742L59.5387 32.1144L64.6514 38.0918H62.8966L57.8691 32.136Z" fill="white"/>
<path d="M46.9434 43.9693V39.8809H49.1309V40.2535H47.3348V41.3242H49.1309V41.6969H47.3348V43.602H49.1309V43.9693H46.9434Z" fill="white"/>
<path d="M50.9856 42.3721L52.0188 43.9816H51.5874L50.7473 42.6746L49.8725 43.9816H49.4531L50.5382 42.3789L49.5876 40.9004H50.0137L50.7712 42.0899L51.5821 40.9004H52.0254L50.9856 42.3721Z" fill="white"/>
<path d="M52.6538 43.5088V44.9995H52.2756V42.5151C52.2756 41.6158 52.8708 40.8408 53.8747 40.8408C54.358 40.8408 54.7548 40.9947 55.0703 41.3026C55.3859 41.6104 55.5483 42.0007 55.5483 42.4678C55.5483 43.3792 54.8546 44.0705 53.904 44.0705C53.4593 44.0705 53.1025 43.9396 52.6538 43.5088ZM52.6538 42.4314C52.6538 43.1416 53.0625 43.733 53.8907 43.733C54.2462 43.733 54.5497 43.6088 54.7827 43.3657C55.0224 43.1227 55.1449 42.827 55.1449 42.484C55.1449 41.7981 54.6309 41.177 53.8787 41.177C53.1837 41.177 52.6538 41.7981 52.6538 42.4314Z" fill="white"/>
<path d="M56.4325 43.9817H56.041V42.1711C56.041 41.5676 56.1875 41.1949 56.7587 40.9519C56.8985 40.8924 57.0143 40.8627 57.1554 40.8506V41.2584C56.6189 41.3232 56.4311 41.5419 56.4311 42.1157V43.9817H56.4325Z" fill="white"/>
<path d="M57.7266 42.349C57.7506 43.1416 58.182 43.7155 58.9702 43.7155C59.5187 43.7155 60.0433 43.3846 60.1538 42.8338H60.5852C60.3748 43.544 59.7744 44.0706 58.9808 44.0706C58.0355 44.0706 57.3179 43.3428 57.3179 42.4382C57.3179 41.5025 58.0249 40.7868 58.9981 40.8111C59.7451 40.8287 60.2577 41.1838 60.52 41.8292C60.6025 42.0182 60.6371 42.1843 60.6371 42.3315V42.349H57.7266ZM58.1061 41.4971C57.9716 41.6267 57.8784 41.7576 57.7626 42.0236L60.1658 42.0115C59.8742 41.4079 59.5068 41.1595 58.9409 41.1595C58.62 41.1595 58.3457 41.2716 58.1061 41.4971Z" fill="white"/>
<path d="M61.2962 43.0348C61.2962 43.3548 61.4893 43.7153 61.9087 43.7153C62.2362 43.7153 62.4866 43.4966 62.4866 43.1833C62.4866 42.8404 62.2362 42.6865 61.9606 42.5798C61.8794 42.5447 61.7862 42.5204 61.6917 42.4785C61.3362 42.3476 61.0326 42.1828 61.0326 41.6805C61.0326 41.1945 61.4534 40.8164 61.954 40.8164C62.5385 40.8164 62.8008 41.1364 62.8594 41.6441H62.4453C62.4107 41.3902 62.3161 41.1823 61.9313 41.1823C61.6571 41.1823 61.4414 41.3835 61.4414 41.6549C61.4414 41.9155 61.6278 42.0519 61.8142 42.1288C61.9886 42.2058 62.1936 42.2476 62.3334 42.3057C62.7182 42.465 62.9166 42.7432 62.9166 43.1523C62.9166 43.6964 62.4666 44.0637 61.9021 44.0637C61.2723 44.0637 60.9101 43.6262 60.8928 43.0348H61.2962Z" fill="white"/>
<path d="M63.5995 43.0348C63.5995 43.3548 63.7925 43.7153 64.2119 43.7153C64.5395 43.7153 64.7898 43.4966 64.7898 43.1833C64.7898 42.8404 64.5395 42.6865 64.2639 42.5798C64.1826 42.5447 64.0894 42.5204 63.9949 42.4785C63.6394 42.3476 63.3358 42.1828 63.3358 41.6805C63.3358 41.1945 63.7566 40.8164 64.2572 40.8164C64.8417 40.8164 65.104 41.1364 65.1626 41.6441H64.7485C64.7139 41.3902 64.6193 41.1823 64.2346 41.1823C63.9603 41.1823 63.7446 41.3835 63.7446 41.6549C63.7446 41.9155 63.931 42.0519 64.1174 42.1288C64.2918 42.2058 64.4969 42.2476 64.6367 42.3057C65.0214 42.465 65.2198 42.7432 65.2198 43.1523C65.2198 43.6964 64.7698 44.0637 64.2053 44.0637C63.5755 44.0637 63.2134 43.6262 63.196 43.0348H63.5995Z" fill="white"/>
</g>
<defs>
<clipPath id="clip0">
<rect width="95" height="45" fill="white"/>
</clipPath>
</defs>
</svg>
