<svg width="59" height="60" viewBox="0 0 59 60" fill="none" xmlns="http://www.w3.org/2000/svg">
<path d="M29.5649 25.25C25.5295 25.25 23.2596 25.713 18.8459 28.9541C14.4323 32.1952 8.97831 39.449 8.97831 39.449C7.71726 41.0953 6.3368 44.3878 8.35448 46.8572C10.8766 49.9439 23.4698 49.9439 29.5649 49.9439C35.4498 49.9439 47.8001 49.3755 50.3722 46.8572C52.2637 45.0051 50.9988 41.0953 49.5276 39.449C49.5276 39.449 43.1746 31.7773 39.6533 28.9541C35.8032 25.8673 33.6002 25.25 29.5649 25.25Z" fill="#FFDDB6"/>
<path d="M14.9568 30.4309C14.8055 29.6669 15.3839 28.9541 16.1551 28.9541H42.5026C43.2738 28.9541 43.8521 29.6669 43.7009 30.4309L41.5971 41.0589C41.5655 41.2188 41.5655 41.3834 41.5971 41.5432L43.7009 52.1712C43.8521 52.9352 43.2738 53.648 42.5026 53.648H16.1551C15.3839 53.648 14.8055 52.9352 14.9568 52.1712L17.0606 41.5432C17.0922 41.3834 17.0922 41.2188 17.0606 41.0589L14.9568 30.4309Z" fill="#9D2374"/>
<path fill-rule="evenodd" clip-rule="evenodd" d="M14.3576 30.5522C14.1308 29.4061 14.9983 28.3369 16.1551 28.3369H42.5026C43.6594 28.3369 44.5269 29.4061 44.3001 30.5522L42.1963 41.1802C42.1805 41.2601 42.1805 41.3424 42.1963 41.4223L44.3001 52.0503C44.5269 53.1963 43.6594 54.2655 42.5026 54.2655H16.1551C14.9983 54.2655 14.1308 53.1963 14.3576 52.0503L16.4614 41.4223C16.4772 41.3424 16.4772 41.2601 16.4614 41.1802L14.3576 30.5522ZM16.1551 29.5716C15.7695 29.5716 15.4803 29.928 15.5559 30.31L17.6597 40.938C17.7072 41.1778 17.7072 41.4247 17.6597 41.6644L15.5559 52.2924C15.4803 52.6744 15.7695 53.0308 16.1551 53.0308H42.5026C42.8882 53.0308 43.1774 52.6744 43.1018 52.2924L40.998 41.6644C40.9505 41.4247 40.9505 41.1778 40.998 40.938L43.1018 30.31C43.1774 29.928 42.8882 29.5716 42.5026 29.5716H16.1551Z" fill="#1F0D02"/>
<path d="M35.439 19.0766C35.439 22.4861 32.7034 25.25 29.3289 25.25C25.9543 25.25 23.2187 22.4861 23.2187 19.0766C23.2187 15.667 25.9543 12.9031 29.3289 12.9031C32.7034 12.9031 35.439 15.667 35.439 19.0766Z" fill="#FFDDB6"/>
<path d="M13.3919 48.3835C11.1938 49.2499 8.64108 48.3287 7.69022 46.326C6.67882 44.1958 7.89106 41.7339 10.3099 41.0058L12.7855 40.2606C14.4019 39.7741 16.1809 40.2201 17.2966 41.3916C19.1666 43.3551 18.4034 46.4083 15.7847 47.4404L13.3919 48.3835Z" fill="#FFDDB6"/>
<path d="M45.2658 48.3835C47.4639 49.2499 50.0166 48.3287 50.9674 46.326C51.9788 44.1958 50.7666 41.7339 48.3478 41.0058L45.8722 40.2606C44.2557 39.7741 42.4767 40.2201 41.361 41.3916C39.4911 43.3551 40.2542 46.4083 42.8729 47.4404L45.2658 48.3835Z" fill="#FFDDB6"/>
<path fill-rule="evenodd" clip-rule="evenodd" d="M25.3605 16.5304C25.6636 16.6803 25.7891 17.05 25.6408 17.3563C24.6934 19.3125 25.495 21.6742 27.4312 22.6314C27.7343 22.7812 27.8598 23.151 27.7115 23.4572C27.5631 23.7635 27.1972 23.8903 26.8941 23.7404C24.3517 22.4836 23.2991 19.3823 24.5431 16.8136C24.6914 16.5074 25.0574 16.3806 25.3605 16.5304Z" fill="#FFF0DF"/>
<path fill-rule="evenodd" clip-rule="evenodd" d="M17.1669 41.8305C16.0306 40.6373 14.2452 40.2008 12.6362 40.6851L10.4873 41.332C8.08223 42.0559 6.77257 44.5673 7.83681 46.8088C7.98277 47.1162 8.34774 47.2459 8.652 47.0984C8.95625 46.951 9.08459 46.5822 8.93863 46.2748C8.24696 44.818 9.04189 43.0553 10.8362 42.5153L12.9851 41.8684C14.1825 41.508 15.4857 41.8459 16.2863 42.6866C16.5203 42.9322 16.9071 42.9398 17.1503 42.7034C17.3935 42.467 17.4009 42.0761 17.1669 41.8305Z" fill="#FFF0DF"/>
<path fill-rule="evenodd" clip-rule="evenodd" d="M51.3493 44.5049C50.9557 42.8975 49.6255 41.6176 47.9924 41.2242L45.8113 40.6988C43.3702 40.1108 40.9931 41.6241 40.8055 44.1029C40.7798 44.4429 41.0317 44.7396 41.3682 44.7656C41.7047 44.7915 41.9983 44.537 42.024 44.1971C42.1459 42.586 43.7067 41.4611 45.5279 41.8998L47.709 42.4253C48.9243 42.718 49.8857 43.669 50.163 44.8015C50.2441 45.1325 50.5753 45.3344 50.9029 45.2525C51.2305 45.1706 51.4304 44.8359 51.3493 44.5049Z" fill="#FFF0DF"/>
<path fill-rule="evenodd" clip-rule="evenodd" d="M16.7123 30.6849C16.8284 30.5419 17.0018 30.459 17.1849 30.459H41.4728C41.8103 30.459 42.0838 30.7354 42.0838 31.0763C42.0838 31.4173 41.8103 31.6937 41.4728 31.6937H17.9302L19.742 40.8467C19.8082 41.1811 19.5936 41.5063 19.2627 41.5732C18.9318 41.64 18.6099 41.4232 18.5437 41.0889L16.5857 31.1974C16.5498 31.016 16.5963 30.828 16.7123 30.6849ZM18.3167 45.8082C18.6476 45.8751 18.8622 46.2003 18.796 46.5347L17.784 51.6471C17.7178 51.9814 17.3959 52.1982 17.065 52.1314C16.7341 52.0645 16.5195 51.7393 16.5857 51.4049L17.5977 46.2925C17.6639 45.9582 17.9858 45.7414 18.3167 45.8082Z" fill="#9D2374"/>
<path d="M29.9398 14.1378C28.245 15.3466 26.121 15.411 24.6698 15.1024L23.2952 17.5332C20.2018 13.1732 23.883 10.5265 25.4718 9.85492C30.5562 7.43719 34.4463 9.6234 35.2099 12.2471C36.8902 13.3661 36.5847 16.6843 35.4389 17.5332C32.4731 16.3243 30.8225 15.1452 29.9398 14.1378Z" fill="#959595"/>
<path fill-rule="evenodd" clip-rule="evenodd" d="M25.7632 10.0012C30.3539 7.91024 34.2009 9.71221 35.0077 12.3752C35.1065 12.7012 34.925 13.0464 34.6024 13.1462C34.2797 13.246 33.938 13.0626 33.8392 12.7366C33.3262 11.0435 30.4517 9.21465 26.255 11.1316C26.2472 11.1352 26.2392 11.1386 26.2312 11.1419C25.7296 11.3455 24.907 11.8302 24.3223 12.5425C23.7553 13.2331 23.4346 14.0988 23.7853 15.1703C23.8912 15.494 23.7174 15.8432 23.397 15.9502C23.0766 16.0573 22.731 15.8816 22.625 15.5579C22.1101 13.9844 22.6183 12.6842 23.3817 11.7542C24.1226 10.8518 25.1237 10.2632 25.7632 10.0012Z" fill="#959595"/>
<path fill-rule="evenodd" clip-rule="evenodd" d="M29.2285 41.9269C29.295 41.9157 29.3629 41.9157 29.4294 41.9269L36.0928 43.0489C36.4257 43.105 36.6505 43.4231 36.595 43.7594C36.5396 44.0957 36.2248 44.3229 35.8919 44.2668L29.3289 43.1617L22.766 44.2668C22.4331 44.3229 22.1183 44.0957 22.0629 43.7594C22.0074 43.4231 22.2322 43.105 22.5651 43.0489L29.2285 41.9269Z" fill="#9D2374"/>
<path fill-rule="evenodd" clip-rule="evenodd" d="M24.5322 26.475C22.996 26.9678 21.3855 27.8523 19.2052 29.4534C18.9322 29.6538 18.5501 29.5928 18.3517 29.317C18.1533 29.0412 18.2137 28.6551 18.4867 28.4546C20.7201 26.8146 22.4513 25.8471 24.1624 25.2982C25.8757 24.7485 27.5265 24.6326 29.5649 24.6326C31.6117 24.6326 33.2496 24.7884 34.8794 25.3614C36.5068 25.9336 38.0816 26.9058 40.0331 28.4704C40.2974 28.6823 40.3417 29.0707 40.1319 29.3377C39.9221 29.6048 39.5378 29.6495 39.2735 29.4376C37.3749 27.9155 35.9232 27.0357 34.4778 26.5275C33.0347 26.0201 31.5534 25.8673 29.5649 25.8673C27.5679 25.8673 26.066 25.9829 24.5322 26.475ZM15.6595 31.7391C15.8987 31.9796 15.8997 32.3704 15.6617 32.6122C14.0245 34.2749 12.4749 36.0775 11.3323 37.4678C10.7616 38.1622 10.2939 38.752 9.96911 39.1678C9.80676 39.3757 9.68021 39.54 9.59448 39.652C9.55162 39.708 9.51897 39.7509 9.49716 39.7797L9.47265 39.812L9.46521 39.8219L9.46154 39.8268C8.86659 40.6035 8.2116 41.7397 7.92503 42.9679C7.64135 44.1837 7.72449 45.449 8.53416 46.5827C8.73163 46.8592 8.66987 47.245 8.39623 47.4445C8.12258 47.644 7.74066 47.5817 7.5432 47.3052C6.47209 45.8055 6.39453 44.1464 6.7356 42.6846C7.0735 41.2364 7.8278 39.9427 8.4935 39.0732L8.50106 39.0632L8.52713 39.0287C8.55001 38.9986 8.58376 38.9542 8.62776 38.8967C8.71576 38.7817 8.84478 38.6142 9.0098 38.4029C9.33979 37.9804 9.81398 37.3825 10.3921 36.679C11.5472 35.2736 13.1227 33.4402 14.7954 31.7413C15.0334 31.4996 15.4203 31.4986 15.6595 31.7391ZM42.9074 32.0137C43.1504 31.777 43.5372 31.7841 43.7714 32.0296C45.32 33.6525 46.8763 35.4084 48.0437 36.7566C48.6278 37.4312 49.1155 38.0046 49.4573 38.4097C49.6282 38.6122 49.7627 38.7727 49.8545 38.8826L49.9596 39.0087L49.9868 39.0414L49.989 39.044C50.8126 39.9705 51.5278 41.5323 51.8131 43.0953C52.0954 44.6421 51.9925 46.4092 50.8849 47.558C50.6495 47.8022 50.2626 47.8073 50.0209 47.5694C49.7792 47.3315 49.7741 46.9407 50.0096 46.6964C50.6969 45.9835 50.8697 44.7346 50.6113 43.3193C50.3568 41.9251 49.7183 40.5835 49.0741 39.8627C49.0689 39.8569 49.0639 39.851 49.059 39.8451L49.024 39.803L48.9207 39.679C48.83 39.5705 48.6968 39.4116 48.5274 39.2107C48.1883 38.809 47.7041 38.2396 47.124 37.5696C45.9629 36.2288 44.4211 34.4893 42.8917 32.8866C42.6574 32.6411 42.6645 32.2503 42.9074 32.0137Z" fill="#1F0D02"/>
<path fill-rule="evenodd" clip-rule="evenodd" d="M35.1951 17.2363C35.5258 17.1685 35.8484 17.3844 35.9155 17.7185C36.0038 18.1578 36.05 18.612 36.05 19.0764C36.05 22.8269 33.0409 25.8672 29.3289 25.8672C25.6168 25.8672 22.6077 22.8269 22.6077 19.0764C22.6077 18.622 22.6519 18.1775 22.7365 17.7471C22.8022 17.4127 23.1238 17.1954 23.4548 17.2618C23.7858 17.3282 24.0009 17.6532 23.9351 17.9876C23.866 18.3392 23.8297 18.7032 23.8297 19.0764C23.8297 22.145 26.2918 24.6325 29.3289 24.6325C32.366 24.6325 34.828 22.145 34.828 19.0764C34.828 18.6949 34.7901 18.323 34.7179 17.9642C34.6508 17.6301 34.8644 17.3042 35.1951 17.2363Z" fill="#1F0D02"/>
<path fill-rule="evenodd" clip-rule="evenodd" d="M14.3576 30.5519C14.1308 29.4059 14.9983 28.3367 16.1551 28.3367H42.5026C43.6594 28.3367 44.5269 29.4059 44.3001 30.5519L42.2084 41.1188C42.1422 41.4531 41.8203 41.6699 41.4894 41.6031C41.1585 41.5362 40.9439 41.2109 41.0101 40.8766L43.1018 30.3098C43.1774 29.9278 42.8882 29.5714 42.5026 29.5714H16.1551C15.7695 29.5714 15.4803 29.9278 15.5559 30.3098L17.628 40.7774C17.6942 41.1117 17.4796 41.4369 17.1487 41.5038C16.8178 41.5707 16.4959 41.3539 16.4297 41.0195L14.3576 30.5519ZM16.0063 46.8691C16.3372 46.936 16.5518 47.2612 16.4856 47.5955L15.5559 52.2922C15.4803 52.6742 15.7695 53.0306 16.1551 53.0306H42.5026C42.8882 53.0306 43.1774 52.6742 43.1018 52.2922L42.1721 47.5955C42.1059 47.2612 42.3205 46.936 42.6514 46.8691C42.9823 46.8022 43.3042 47.0191 43.3704 47.3534L44.3001 52.05C44.5269 53.1961 43.6594 54.2653 42.5026 54.2653H16.1551C14.9983 54.2653 14.1308 53.1961 14.3576 52.05L15.2873 47.3534C15.3535 47.0191 15.6754 46.8022 16.0063 46.8691Z" fill="#1F0D02"/>
<path fill-rule="evenodd" clip-rule="evenodd" d="M17.737 40.9633C16.4534 39.6155 14.4333 39.1202 12.6111 39.6688L10.1355 40.4139C7.41128 41.2339 5.94167 44.0702 7.13936 46.5927C8.24391 48.9191 11.1526 49.9285 13.614 48.9584L16.0068 48.0153C18.9887 46.84 19.9404 43.2769 17.737 40.9633ZM12.96 40.8521C14.3706 40.4274 15.9086 40.8242 16.8564 41.8194C18.3929 43.4328 17.8182 45.9761 15.5627 46.865L13.1698 47.8081C11.2351 48.5707 9.03834 47.7377 8.24118 46.0587C7.41606 44.3209 8.37094 42.2334 10.4844 41.5972L12.96 40.8521Z" fill="#1F0D02"/>
<path fill-rule="evenodd" clip-rule="evenodd" d="M40.9207 40.9633C42.2043 39.6155 44.2244 39.1202 46.0467 39.6688L48.5222 40.4139C51.2464 41.2339 52.7161 44.0702 51.5184 46.5927C50.4138 48.9191 47.5051 49.9285 45.0438 48.9584L42.6509 48.0153C39.669 46.84 38.7173 43.2769 40.9207 40.9633ZM45.6978 40.8521C44.2871 40.4274 42.7492 40.8242 41.8013 41.8194C40.2648 43.4328 40.8395 45.9761 43.095 46.865L45.4879 47.8081C47.4227 48.5707 49.6194 47.7377 50.4165 46.0587C51.2417 44.3209 50.2868 42.2334 48.1733 41.5972L45.6978 40.8521Z" fill="#1F0D02"/>
<path fill-rule="evenodd" clip-rule="evenodd" d="M35.7302 11.8654C36.6783 12.6169 37.0051 13.8945 36.9953 14.9969C36.9899 15.5991 36.8862 16.1995 36.6962 16.72C36.51 17.23 36.2197 17.7203 35.8003 18.031C35.6297 18.1574 35.4066 18.1856 35.2104 18.1056C32.5445 17.019 30.8693 15.9347 29.8468 14.9316C28.2852 15.8542 26.5005 15.9889 25.1182 15.8051C25.1139 15.8197 25.1095 15.8345 25.105 15.8494C25.0076 16.1739 24.853 16.6237 24.6445 16.9622C24.5103 17.1801 24.3188 17.4637 24.1659 17.686C24.0884 17.7987 24.019 17.8983 23.9689 17.9697L23.9095 18.0542L23.8877 18.085C23.7758 18.2428 23.5964 18.3389 23.4043 18.3432C23.2122 18.3476 23.0292 18.2604 22.9104 18.1078C22.0013 16.9404 21.546 15.834 21.4426 14.8011C21.3389 13.7648 21.5948 12.8541 22.0222 12.092C22.8568 10.6041 24.3532 9.66148 25.2235 9.29068C30.403 6.83389 34.6965 8.87452 35.7302 11.8654ZM23.3862 16.6514C22.9285 15.9114 22.7161 15.2525 22.6584 14.6769C22.5837 13.9309 22.7639 13.274 23.0854 12.7008C23.7446 11.5255 24.9872 10.7289 25.7077 10.4244C25.7159 10.4209 25.7241 10.4173 25.7321 10.4134C30.5971 8.10002 34.0001 10.2784 34.6238 12.4212C34.6646 12.5613 34.7531 12.6822 34.8737 12.7625C35.4639 13.1555 35.782 14.0057 35.7733 14.9858C35.7691 15.4592 35.6866 15.9174 35.5496 16.2928C35.4716 16.5065 35.3823 16.6764 35.2921 16.8047C32.6119 15.6712 31.1576 14.5962 30.3973 13.7285C30.1909 13.4928 29.8419 13.4519 29.5875 13.6334C28.0761 14.7114 26.1432 14.7848 24.7957 14.4982C24.4674 14.4284 24.1448 14.6391 24.073 14.9702" fill="#1F0D02"/>
<path fill-rule="evenodd" clip-rule="evenodd" d="M29.2284 40.692C29.2949 40.6808 29.3628 40.6808 29.4293 40.692L36.7615 41.9267C37.0943 41.9827 37.3192 42.3008 37.2637 42.6371C37.2083 42.9734 36.8934 43.2006 36.5606 43.1446L29.3288 41.9268L22.0971 43.1446C21.7642 43.2006 21.4494 42.9734 21.3939 42.6371C21.3384 42.3008 21.5633 41.9827 21.8962 41.9267L29.2284 40.692Z" fill="#1F0D02"/>
</svg>
