<svg width="60" height="60" viewBox="0 0 60 60" fill="none" xmlns="http://www.w3.org/2000/svg">
<g clip-path="url(#clip0)">
<path d="M37.0001 13.4577C35.8441 15.4624 33.2987 16.1407 31.3146 14.9728C29.3305 13.8049 28.6591 11.233 29.815 9.22839C30.9709 7.22373 33.5164 6.5454 35.5005 7.71329C37.4846 8.88118 38.156 11.453 37.0001 13.4577Z" fill="#FFDDB6"/>
<path fill-rule="evenodd" clip-rule="evenodd" d="M34.1808 8.31158C34.1808 8.65253 33.9072 8.92893 33.5697 8.92893C32.131 8.92893 30.9647 10.1073 30.9647 11.5609C30.9647 11.9019 30.6912 12.1783 30.3537 12.1783C30.0163 12.1783 29.7427 11.9019 29.7427 11.5609C29.7427 9.42541 31.4561 7.69423 33.5697 7.69423C33.9072 7.69423 34.1808 7.97063 34.1808 8.31158Z" fill="#FFF0DF"/>
<path d="M12.2103 14.5013C12.3399 13.8321 12.9819 13.3957 13.6443 13.5267L28.1988 16.4049C28.8612 16.5359 29.293 17.1845 29.1634 17.8537L26.3147 32.5591C26.1851 33.2283 25.5431 33.6646 24.8807 33.5336L10.3262 30.6555C9.66384 30.5245 9.23199 29.8758 9.36163 29.2066L12.2103 14.5013Z" fill="#959595"/>
<path fill-rule="evenodd" clip-rule="evenodd" d="M13.0232 14.1341C13.1577 14.0427 13.3226 14.009 13.4816 14.0405L27.3904 16.7909C27.7216 16.8564 27.9375 17.1808 27.8727 17.5154C27.8079 17.85 27.4869 18.0681 27.1557 18.0026L13.8465 15.3707L11.1816 29.1274C11.1168 29.462 10.7958 29.6802 10.4646 29.6147C10.1335 29.5492 9.91753 29.2249 9.98235 28.8903L12.7646 14.5277C12.7957 14.367 12.8887 14.2254 13.0232 14.1341Z" fill="#959595"/>
<path d="M29.0672 29.3587C27.7265 29.3392 26.624 30.4215 26.6047 31.7761L26.4531 42.4171L18.3786 49.2612C17.3514 50.1319 17.2172 51.6791 18.079 52.717C18.9408 53.7548 20.4721 53.8904 21.4994 53.0197L30.276 45.5805C30.7795 45.2164 31.1402 44.6624 31.2541 44.0204C31.2854 43.8492 31.2987 43.675 31.2938 43.501L31.4598 31.8467C31.4791 30.4921 30.4079 29.3782 29.0672 29.3587Z" fill="#9D2374"/>
<path d="M28.6383 19.5513C28.8656 18.2162 30.1212 17.3201 31.4426 17.5498C32.764 17.7796 33.651 19.0481 33.4236 20.3833L31.6158 30.998L38.1334 39.5393C38.3747 39.8556 38.5278 40.2126 38.5964 40.5799C38.6162 40.6747 38.6305 40.7717 38.6392 40.8706L39.669 52.5988C39.7875 53.9483 38.8008 55.1393 37.4652 55.259C36.1296 55.3787 34.9508 54.3818 34.8324 53.0324L33.8616 41.976L27.1725 33.21C26.9648 32.9378 26.8225 32.6355 26.7431 32.3225C26.6265 31.9574 26.5932 31.5593 26.6621 31.1551L28.6383 19.5513Z" fill="#9D2374"/>
<path d="M38.0387 25.1251L42.847 18.8286C43.6089 17.831 45.027 17.6462 46.0144 18.416C47.0019 19.1857 47.1848 20.6185 46.4229 21.6162L39.8579 30.2131C39.7301 30.395 39.5745 30.5615 39.3918 30.7062C38.3735 31.5126 36.901 31.3323 36.1029 30.3035L29.1659 21.3616C28.3678 20.3328 28.5462 18.845 29.5645 18.0386C30.5828 17.2322 32.0553 17.4125 32.8535 18.4413L38.0387 25.1251Z" fill="#9D2374"/>
<path fill-rule="evenodd" clip-rule="evenodd" d="M29.304 21.3992C29.6366 21.457 29.8598 21.7763 29.8026 22.1123L28.3343 30.7339C28.2832 31.0337 28.308 31.3271 28.3939 31.5961C28.3977 31.6081 28.4012 31.6202 28.4043 31.6324C28.4627 31.8629 28.5675 32.0859 28.7217 32.2879L35.3483 40.9722C35.4195 41.0654 35.4627 41.1773 35.473 41.2946L36.4348 52.2477C36.5223 53.2449 37.3934 53.9816 38.3804 53.8932C38.7166 53.863 39.0132 54.1139 39.0431 54.4536C39.0729 54.7932 38.8246 55.0929 38.4884 55.123C36.8291 55.2718 35.3647 54.0333 35.2175 52.3568L34.2716 41.5833L27.7539 33.0418C27.5006 32.7099 27.325 32.3405 27.2252 31.9573C27.0848 31.5079 27.0457 31.019 27.13 30.5245L28.5983 21.9029C28.6555 21.5669 28.9715 21.3414 29.304 21.3992Z" fill="#9D2374"/>
<path fill-rule="evenodd" clip-rule="evenodd" d="M31.1157 17.2707C31.3239 17.5391 31.2774 17.9271 31.0118 18.1374C30.2591 18.7335 30.1272 19.8333 30.7172 20.5938L30.2363 20.9746L30.7172 20.5938L37.6541 29.5356C37.8623 29.8039 37.8157 30.192 37.5501 30.4023C37.2846 30.6126 36.9005 30.5656 36.6923 30.2973L29.7554 21.3554C28.749 20.0583 28.974 18.1824 30.2579 17.1657C30.5235 16.9553 30.9076 17.0024 31.1157 17.2707Z" fill="#9D2374"/>
<path fill-rule="evenodd" clip-rule="evenodd" d="M27.3138 42.8856C27.5307 43.1468 27.497 43.5362 27.2384 43.7554L19.164 50.5994C18.9054 50.8185 18.52 50.7844 18.3031 50.5232C18.0863 50.262 18.12 49.8726 18.3785 49.6535L26.453 42.8094C26.7115 42.5903 27.0969 42.6244 27.3138 42.8856Z" fill="#9D2374"/>
<path fill-rule="evenodd" clip-rule="evenodd" d="M11.6104 14.3824C11.8049 13.3786 12.7679 12.7241 13.7614 12.9206L28.316 15.7987C29.3095 15.9952 29.9573 16.9682 29.7628 17.972L26.9142 32.6774C26.7197 33.6812 25.7567 34.3357 24.7632 34.1392L10.2086 31.2611C9.21509 31.0646 8.56732 30.0916 8.76177 29.0878L11.6104 14.3824ZM13.5267 14.1323C13.1955 14.0668 12.8745 14.285 12.8097 14.6196L9.96105 29.3249C9.89623 29.6595 10.1122 29.9839 10.4433 30.0493L24.9979 32.9275C25.3291 32.993 25.6501 32.7748 25.7149 32.4402L28.5635 17.7349C28.6284 17.4003 28.4124 17.0759 28.0813 17.0105L13.5267 14.1323Z" fill="#1F0D02"/>
<path fill-rule="evenodd" clip-rule="evenodd" d="M35.1926 8.24667C33.5001 7.25041 31.3287 7.82905 30.3426 9.53911C29.3566 11.2492 29.9293 13.4431 31.6218 14.4393C33.3143 15.4356 35.4857 14.8569 36.4718 13.1469C37.4578 11.4368 36.8851 9.24293 35.1926 8.24667ZM29.2867 8.91758C30.6125 6.61831 33.5321 5.84029 35.8077 7.17982C38.0834 8.51934 38.8535 11.4692 37.5277 13.7684C36.2019 16.0677 33.2823 16.8457 31.0066 15.5062C28.731 14.1667 27.9609 11.2168 29.2867 8.91758Z" fill="#1F0D02"/>
<path fill-rule="evenodd" clip-rule="evenodd" d="M26.6137 31.1588C26.9512 31.1637 27.2207 31.444 27.2159 31.7849L27.0643 42.426C27.0617 42.6054 26.9821 42.7748 26.846 42.8901L18.7716 49.7341C18.0029 50.3856 17.9025 51.5435 18.5474 52.3201C19.1923 53.0968 20.3382 53.1982 21.1069 52.5467L29.8835 45.1075C29.8955 45.0973 29.9079 45.0876 29.9206 45.0784C30.2987 44.8051 30.568 44.3901 30.6529 43.9114L30.6535 43.9081C30.677 43.7797 30.687 43.6491 30.6833 43.5187C30.683 43.5098 30.683 43.5009 30.6831 43.4921L30.7505 38.7601C30.7554 38.4192 31.0328 38.1468 31.3703 38.1517C31.7077 38.1566 31.9773 38.4369 31.9724 38.7778L31.9052 43.4972C31.9103 43.7097 31.8936 43.9221 31.8555 44.1309C31.7138 44.9269 31.27 45.6132 30.6519 46.0678L21.8923 53.4926C20.6066 54.5824 18.6898 54.4128 17.6111 53.1137C16.5325 51.8146 16.7004 49.878 17.9862 48.7882L18.3789 49.2611L17.9862 48.7882L25.8464 42.1257L25.994 31.7672C25.9988 31.4262 26.2763 31.1538 26.6137 31.1588Z" fill="#1F0D02"/>
<path fill-rule="evenodd" clip-rule="evenodd" d="M28.0361 19.4467C28.3207 17.7755 29.8922 16.6539 31.5462 16.9415C31.8788 16.9993 32.102 17.3185 32.0448 17.6545C31.9876 17.9906 31.6716 18.2161 31.339 18.1583C30.3501 17.9863 29.4106 18.6569 29.2404 19.656L27.2642 31.2598C27.2125 31.5634 27.2376 31.8606 27.3246 32.1329C27.3284 32.1449 27.3319 32.157 27.335 32.1692C27.3942 32.4026 27.5003 32.6285 27.6564 32.833L27.1725 33.21L27.6564 32.833L34.3455 41.5991C34.4166 41.6924 34.4599 41.8042 34.4702 41.9215L35.441 52.9778C35.5296 53.9876 36.4118 54.7336 37.4112 54.6441C38.4107 54.5545 39.149 53.6632 39.0604 52.6534L38.0306 40.9252L38.6392 40.8706L38.0306 40.9252C38.024 40.8507 38.0132 40.7778 37.9985 40.7069L37.9959 40.6945L37.996 40.6944C37.9448 40.4204 37.8307 40.1538 37.6494 39.9162L31.1319 31.375C31.0276 31.2382 30.9847 31.0635 31.0137 30.8933L31.8827 25.7906C31.9399 25.4546 32.2559 25.2291 32.5885 25.2869C32.921 25.3447 33.1442 25.664 33.087 26L32.2635 30.8357L38.6172 39.1623C38.9174 39.5556 39.109 40.0007 39.1957 40.4592C39.2197 40.5758 39.2372 40.6949 39.2478 40.8161L40.2776 52.5443C40.4259 54.2334 39.1909 55.7241 37.5192 55.8739C35.8475 56.0238 34.372 54.776 34.2237 53.0869L33.2687 42.2102L26.6886 33.5869L27.0384 33.3145L26.6886 33.5869C26.4334 33.2524 26.2564 32.8802 26.1559 32.494C26.0144 32.0412 25.9751 31.5487 26.0599 31.0504L28.0361 19.4467Z" fill="#1F0D02"/>
<path fill-rule="evenodd" clip-rule="evenodd" d="M32.3725 18.8221C31.7826 18.0616 30.6941 17.9283 29.9414 18.5244C29.1887 19.1205 29.0568 20.2202 29.6468 20.9807L29.1659 21.3616L29.6468 20.9807L36.5837 29.9226C37.1737 30.6831 38.2622 30.8163 39.0149 30.2202C39.1507 30.1127 39.2655 29.9896 39.3596 29.8557C39.3643 29.849 39.3691 29.8424 39.3741 29.8359L45.9391 21.239C46.4948 20.5113 46.3614 19.4662 45.6412 18.9047C44.9209 18.3432 43.8865 18.478 43.3307 19.2057L38.5224 25.5022C38.4072 25.653 38.2296 25.7417 38.041 25.7424C37.8524 25.7432 37.6741 25.6559 37.5578 25.5059L32.3725 18.8221ZM29.1875 17.5527C30.4714 16.5359 32.328 16.7632 33.3343 18.0604L38.0349 24.1195L42.3632 18.4515C43.3312 17.1838 45.133 16.9491 46.3877 17.9271C47.6423 18.9052 47.8746 20.7256 46.9066 21.9933L40.3486 30.581C40.1885 30.8068 39.9947 31.0131 39.7687 31.192C38.4849 32.2088 36.6283 31.9814 35.6219 30.6842L28.685 21.7424C27.6787 20.4452 27.9036 18.5694 29.1875 17.5527Z" fill="#1F0D02"/>
<path fill-rule="evenodd" clip-rule="evenodd" d="M48.3165 12.351C48.6183 12.5034 48.7406 12.8743 48.5897 13.1792L46.1456 18.118C45.9947 18.423 45.6277 18.5466 45.3259 18.3941C45.024 18.2416 44.9017 17.8708 45.0526 17.5658L47.4967 12.627C47.6476 12.3221 48.0146 12.1985 48.3165 12.351Z" fill="#1F0D02"/>
<path fill-rule="evenodd" clip-rule="evenodd" d="M36.3971 7.75322C36.5124 8.07365 36.3488 8.42786 36.0317 8.54438L29.3105 11.0138C29.2435 11.0384 29.1729 11.0509 29.1017 11.0509H26.0466C25.7091 11.0509 25.4355 10.7745 25.4355 10.4336C25.4355 10.0926 25.7091 9.81624 26.0466 9.81624H28.994L35.614 7.38402C35.9312 7.2675 36.2817 7.4328 36.3971 7.75322Z" fill="black"/>
</g>
<defs>
<clipPath id="clip0">
<rect width="58.6577" height="59.2654" fill="white" transform="translate(0.383789 0.556152)"/>
</clipPath>
</defs>
</svg>
