<svg width="59" height="60" viewBox="0 0 59 60" fill="none" xmlns="http://www.w3.org/2000/svg">
<path d="M36.1106 50.6449C39.2781 50.8734 41.341 50.6449 44.4793 51.3495L48.6636 44.3034C45.874 39.512 40.7599 39.8408 38.5515 40.0757C36.5781 40.2856 35.5853 41.2821 33.0592 41.2821C30.3579 41.2821 30.0484 43.4428 30.9488 44.3526C30.9488 44.3526 27.9661 44.2958 25.5462 43.187C23.1262 42.0782 20.5189 40.9316 19.7221 42.5418C19.0247 43.9511 20.6519 44.4208 21.4656 45.008C23.4877 46.0605 25.8975 47.5651 28.4394 48.531C30.7191 49.3973 33.8026 50.4783 36.1106 50.6449Z" fill="#FFDDB6"/>
<path d="M17.6589 7.205C14.4914 6.97641 12.4285 7.205 9.29023 6.50039C5.47971 7.38833 4.91297 11.5678 5.10592 13.5465C7.89546 18.3378 13.0096 18.009 15.218 17.7742C16.6128 17.4219 18.1842 16.5677 20.7103 16.5677C23.4116 16.5677 23.7211 14.407 22.8207 13.4972C22.8207 13.4972 25.8034 13.5541 28.2233 14.6629C30.6433 15.7717 33.2506 16.9182 34.0474 15.308C34.7448 13.8988 33.1176 13.4291 32.3039 12.8419C30.2818 11.7894 27.872 10.2847 25.3301 9.31883C23.0504 8.45257 19.9669 7.37157 17.6589 7.205Z" fill="#FFDDB6"/>
<path d="M20.7746 23.9111H37.8831V36.2581C37.8831 36.94 37.336 37.4928 36.661 37.4928H21.9966C21.3217 37.4928 20.7746 36.94 20.7746 36.2581V23.9111Z" fill="#FFBD7F"/>
<path fill-rule="evenodd" clip-rule="evenodd" d="M21.1946 25.1457C21.1946 24.8047 21.4682 24.5283 21.8057 24.5283H35.248C35.5855 24.5283 35.8591 24.8047 35.8591 25.1457C35.8591 25.4866 35.5855 25.763 35.248 25.763H22.4167V35.0232C22.4167 35.3642 22.1431 35.6406 21.8057 35.6406C21.4682 35.6406 21.1946 35.3642 21.1946 35.0232V25.1457Z" fill="#FFDAB8"/>
<path d="M26.8848 23.9111H31.7729V27.6152L30.5509 26.9097L29.3288 27.6152L28.1068 26.9097L26.8848 27.6152V23.9111Z" fill="#FFF6A2"/>
<path d="M19.5526 21.4417C19.5526 20.7598 20.0997 20.207 20.7746 20.207H37.8831C38.558 20.207 39.1051 20.7598 39.1051 21.4417V22.6764C39.1051 23.3583 38.558 23.9111 37.8831 23.9111H20.7746C20.0997 23.9111 19.5526 23.3583 19.5526 22.6764V21.4417Z" fill="#FDD29F"/>
<path fill-rule="evenodd" clip-rule="evenodd" d="M20.1636 21.2101C20.1636 20.8692 20.4371 20.5928 20.7746 20.5928H36.661C36.9985 20.5928 37.2721 20.8692 37.2721 21.2101C37.2721 21.5511 36.9985 21.8275 36.661 21.8275H20.7746C20.4371 21.8275 20.1636 21.5511 20.1636 21.2101Z" fill="#FFECD5"/>
<path d="M50.3869 44.1196L52.4439 46.2728C52.6905 46.5309 52.8177 46.886 52.7667 47.2411C52.3569 50.0925 50.891 51.9638 49.9251 52.7867C49.6958 52.9821 49.3904 53.0452 49.0937 53.001L45.2765 52.4324C44.6221 52.335 44.2733 51.6302 44.6044 51.0743L48.8814 44.2835C49.1983 43.7513 49.9562 43.6688 50.3869 44.1196Z" fill="#9D2374"/>
<path fill-rule="evenodd" clip-rule="evenodd" d="M50.0457 43.8758C50.3317 44.0567 50.4185 44.4376 50.2395 44.7267L46.3443 51.0159C46.1653 51.3049 45.7882 51.3926 45.5022 51.2117C45.2161 51.0309 45.1293 50.6499 45.3083 50.3609L49.2036 44.0717C49.3826 43.7827 49.7596 43.695 50.0457 43.8758Z" fill="#9D2374"/>
<path fill-rule="evenodd" clip-rule="evenodd" d="M39.2482 40.9248C39.2129 40.5858 38.9122 40.3398 38.5766 40.3755C37.7368 40.4648 37.0452 40.7059 36.4054 40.929C36.2881 40.9699 36.1725 41.0102 36.0581 41.0488C35.3142 41.3 34.5361 41.5168 33.4293 41.5168C31.9807 41.5168 31.0071 42.1105 30.593 43.0058C30.3928 43.4386 30.3416 43.9125 30.4206 44.3554C30.2355 44.3353 30.031 44.31 29.8121 44.2781C28.845 44.1371 27.6269 43.8714 26.553 43.3793C25.4208 42.8606 24.1641 42.2931 23.0858 42.0639C22.5448 41.949 21.9872 41.9045 21.483 42.0344C20.9491 42.172 20.5017 42.5002 20.228 43.0534C20.0771 43.3583 20.1994 43.7291 20.5013 43.8816C20.8031 44.0341 21.1701 43.9105 21.321 43.6055C21.4253 43.3948 21.5707 43.286 21.7851 43.2308C22.0292 43.1679 22.3752 43.1746 22.8343 43.2722C23.7559 43.468 24.8842 43.9705 26.0482 44.5038C27.2704 45.0638 28.6155 45.3511 29.6375 45.5001C30.152 45.5751 30.5926 45.6162 30.9057 45.6385C31.0625 45.6497 31.1877 45.6562 31.2747 45.66C31.3183 45.6619 31.3523 45.6631 31.376 45.6638L31.4037 45.6646L31.4116 45.6647L31.414 45.6648C31.4141 45.6648 31.4153 45.6648 31.4269 45.0476L31.4153 45.6648C31.6645 45.6696 31.8916 45.5209 31.9891 45.2892C32.0867 45.0575 32.0352 44.7891 31.8589 44.6111C31.6179 44.3676 31.5192 43.9195 31.7001 43.5286C31.86 43.1829 32.3148 42.7515 33.4293 42.7515C34.7194 42.7515 35.6375 42.4927 36.4454 42.2199C36.578 42.1751 36.7055 42.1309 36.8296 42.0878C37.4666 41.8668 38.0142 41.6769 38.7045 41.6034C39.0401 41.5677 39.2836 41.2639 39.2482 40.9248Z" fill="#FFEFDD"/>
<path fill-rule="evenodd" clip-rule="evenodd" d="M23.1816 15.388C23.4897 15.2488 23.6278 14.8837 23.4901 14.5724C22.9748 13.408 21.8178 13.1609 20.9073 13.1365C20.4359 13.1239 19.9651 13.1678 19.5695 13.2109C19.4866 13.2199 19.4086 13.2286 19.3352 13.2369C19.0353 13.2705 18.8127 13.2955 18.6474 13.2955C18.6215 13.2955 18.5957 13.2971 18.57 13.3004L16.1067 13.6181C15.3335 13.3616 14.5105 13.1222 13.7643 12.9432C12.9901 12.7575 12.2502 12.6247 11.7311 12.6247C11.3936 12.6247 11.1201 12.9011 11.1201 13.242C11.1201 13.583 11.3936 13.8594 11.7311 13.8594C12.0972 13.8594 12.7183 13.9613 13.4821 14.1445C14.231 14.3242 15.071 14.5704 15.8532 14.8339C15.9403 14.8632 16.0328 14.8723 16.1238 14.8606L18.6888 14.5298C18.9229 14.5262 19.2174 14.4928 19.5047 14.4603C19.5706 14.4529 19.6361 14.4455 19.7004 14.4384C20.0883 14.3962 20.4904 14.3605 20.875 14.3708C21.6766 14.3923 22.1641 14.601 22.3744 15.0764C22.5122 15.3876 22.8736 15.5271 23.1816 15.388Z" fill="#FFEFDD"/>
<path fill-rule="evenodd" clip-rule="evenodd" d="M33.4914 16.0591C33.8288 16.0591 34.1024 15.7827 34.1024 15.4417C34.1024 14.497 33.5613 13.9279 33.0188 13.5615C32.7566 13.3845 32.473 13.2395 32.2351 13.118L32.233 13.1169C31.9792 12.9872 31.7838 12.8868 31.6296 12.7805C31.6058 12.7641 31.5809 12.7494 31.555 12.7366C31.0412 12.4811 30.4889 12.1891 29.907 11.8815C28.3716 11.0698 26.6294 10.1489 24.8409 9.4996C22.6782 8.71452 19.6592 7.69727 17.3598 7.53874C16.3402 7.46844 15.458 7.44413 14.6299 7.4213C12.9221 7.37424 11.444 7.33351 9.46399 6.90878C9.13389 6.83798 8.80948 7.05095 8.7394 7.38447C8.66932 7.71799 8.8801 8.04576 9.2102 8.11656C11.2993 8.56468 12.9443 8.61106 14.7136 8.66094C15.5237 8.68378 16.3598 8.70736 17.2766 8.77057C19.3797 8.91556 22.242 9.86814 24.4277 10.6616C26.1316 11.2801 27.7518 12.1367 29.2635 12.936C29.8521 13.2472 30.4243 13.5497 30.9786 13.8261C31.194 13.9698 31.4389 14.0948 31.6524 14.2039L31.6815 14.2187C31.9296 14.3455 32.1481 14.4586 32.3397 14.588C32.7063 14.8356 32.8804 15.0746 32.8804 15.4417C32.8804 15.7827 33.1539 16.0591 33.4914 16.0591Z" fill="#FFEFDD"/>
<path fill-rule="evenodd" clip-rule="evenodd" d="M49.1902 43.9902C46.1908 38.8383 40.6892 39.2274 38.4875 39.4616C37.6065 39.5553 36.8816 39.808 36.2072 40.0431C36.0834 40.0863 35.9613 40.1288 35.8402 40.1697C35.0545 40.435 34.2306 40.6646 33.0593 40.6646C31.5415 40.6646 30.5295 41.286 30.0998 42.2147C29.8851 42.6788 29.8354 43.1884 29.9289 43.6607C29.722 43.6389 29.491 43.6107 29.2422 43.5744C28.2215 43.4256 26.9344 43.145 25.7985 42.6246C24.6045 42.0775 23.2835 41.4811 22.1512 41.2405C21.5833 41.1198 21.0013 41.0739 20.477 41.2091C19.9229 41.3519 19.4595 41.6919 19.1756 42.2656C18.9504 42.7207 18.8813 43.1707 18.996 43.5999C19.1071 44.0154 19.3674 44.3235 19.6283 44.5506C19.8872 44.7762 20.1905 44.9591 20.4475 45.1083C20.5009 45.1393 20.552 45.1687 20.6008 45.1968C20.8061 45.3149 20.9721 45.4104 21.1104 45.5102C21.1344 45.5275 21.1596 45.543 21.1857 45.5566C21.7252 45.8374 22.3047 46.1581 22.9152 46.4959C24.5249 47.3866 26.3499 48.3965 28.2243 49.1087C30.4917 49.9703 33.6566 51.0865 36.0671 51.2605C37.1361 51.3376 38.061 51.3643 38.9292 51.3894C40.7202 51.441 42.2702 51.4858 44.3467 51.952C44.6035 52.0096 44.8679 51.8948 45.0032 51.667L49.1875 44.6208C49.3026 44.427 49.3037 44.1851 49.1902 43.9902ZM30.9488 44.3525L30.9373 44.9697C31.1865 44.9745 31.4136 44.8258 31.5111 44.5941C31.6087 44.3624 31.5571 44.094 31.3809 43.9159C31.1169 43.6492 31.0106 43.1619 31.2069 42.7375C31.3823 42.3584 31.8757 41.8993 33.0593 41.8993C34.4139 41.8993 35.3778 41.6277 36.2276 41.3407C36.3668 41.2937 36.5008 41.2472 36.6314 41.2019C37.3029 40.9689 37.8839 40.7673 38.6155 40.6895C40.7777 40.4595 45.3332 40.1982 47.9487 44.3071L44.1796 50.654C42.1909 50.2481 40.5733 50.2004 38.842 50.1493C37.9925 50.1242 37.1157 50.0983 36.1542 50.0289C33.9486 49.8698 30.9465 48.824 28.6545 47.9531C26.8669 47.2738 25.1664 46.3328 23.5809 45.4553C22.9636 45.1137 22.3636 44.7817 21.7828 44.4785C21.5958 44.3476 21.3771 44.2221 21.1824 44.1103C21.1389 44.0854 21.0966 44.0611 21.0562 44.0377C20.8011 43.8896 20.5885 43.7569 20.4262 43.6154C20.2656 43.4756 20.1991 43.3653 20.1758 43.278C20.1561 43.2045 20.1451 43.0673 20.2686 42.8178C20.3831 42.5864 20.5445 42.4659 20.779 42.4055C21.0433 42.3373 21.4137 42.3455 21.8997 42.4488C22.8753 42.6561 24.0679 43.1874 25.2938 43.7491C26.5779 44.3374 27.992 44.6396 29.0677 44.7965C29.609 44.8754 30.0725 44.9186 30.4019 44.9421C30.5668 44.9538 30.6984 44.9607 30.7899 44.9647C30.8356 44.9666 30.8714 44.9679 30.8962 44.9686L30.9252 44.9694L30.9334 44.9696L30.9359 44.9697C30.936 44.9697 30.9373 44.9697 30.9488 44.3525Z" fill="#1F0D02"/>
<path fill-rule="evenodd" clip-rule="evenodd" d="M30.4986 42.7971C30.1612 42.7971 29.8876 43.0735 29.8876 43.4145C29.8876 44.092 30.2195 44.5782 30.6985 44.8769C31.1371 45.1504 31.6853 45.2621 32.1859 45.3102C32.6987 45.3595 33.2349 45.3478 33.6926 45.3262C33.8825 45.3172 34.0516 45.3071 34.2017 45.2982C34.4362 45.2843 34.6244 45.2731 34.7733 45.2731C34.7992 45.2731 34.825 45.2714 34.8507 45.2681L37.4452 44.9335C38.2586 45.2036 39.1248 45.4556 39.9098 45.6439C40.7228 45.8389 41.497 45.9777 42.0385 45.9777C42.3759 45.9777 42.6495 45.7013 42.6495 45.3603C42.6495 45.0194 42.3759 44.743 42.0385 44.743C41.65 44.743 40.9946 44.6351 40.192 44.4426C39.4044 44.2537 38.5211 43.9947 37.6987 43.7177C37.6116 43.6884 37.5191 43.6793 37.4281 43.691L34.7327 44.0386C34.5552 44.0405 34.3202 44.0543 34.0718 44.0689C33.928 44.0773 33.7798 44.086 33.6356 44.0928C33.1938 44.1137 32.7267 44.1219 32.3016 44.0811C31.8642 44.0391 31.5398 43.9506 31.3404 43.8262C31.1813 43.727 31.1097 43.6177 31.1097 43.4145C31.1097 43.0735 30.8361 42.7971 30.4986 42.7971Z" fill="#1F0D02"/>
<path fill-rule="evenodd" clip-rule="evenodd" d="M49.4049 44.6017C49.5107 44.424 49.7901 44.384 49.9471 44.5484L52.3925 47.108C52.6268 47.3534 53.0136 47.3603 53.2564 47.1235C53.4992 46.8867 53.5061 46.4959 53.2717 46.2506L50.8264 43.6909C50.1241 42.9558 48.8926 43.0779 48.3622 43.9578L44.0805 50.756C43.5079 51.7176 44.134 52.8863 45.1873 53.0432L49.4652 53.6804C49.799 53.7301 50.1096 53.497 50.1588 53.1597C50.208 52.8224 49.9773 52.5086 49.6434 52.4589L45.3655 51.8217C45.1126 51.784 45.0399 51.5477 45.1251 51.3972L49.4049 44.6017Z" fill="#1F0D02"/>
<path fill-rule="evenodd" clip-rule="evenodd" d="M4.57927 13.8596C7.57874 19.0116 13.0803 18.6224 15.282 18.3883C15.3104 18.3852 15.3385 18.3802 15.3662 18.3732C15.8135 18.2602 16.2449 18.1138 16.6904 17.9625C17.7919 17.5886 18.98 17.1852 20.7103 17.1852C22.2118 17.1852 23.2378 16.6034 23.6783 15.6833C23.9085 15.2024 23.9519 14.6776 23.8444 14.1895C24.0504 14.2113 24.2801 14.2394 24.5273 14.2754C25.548 14.4242 26.8351 14.7048 27.971 15.2253C29.165 15.7724 30.486 16.3687 31.6183 16.6093C32.1862 16.73 32.7682 16.7759 33.2926 16.6408C33.8466 16.498 34.31 16.158 34.5939 15.5842C34.8191 15.1292 34.8882 14.6792 34.7735 14.2499C34.6624 13.8344 34.4021 13.5264 34.1413 13.2992C33.8823 13.0737 33.579 12.8908 33.322 12.7416C33.2686 12.7106 33.2175 12.6812 33.1687 12.6531C32.9634 12.535 32.7974 12.4395 32.6591 12.3397C32.6351 12.3224 32.6099 12.3068 32.5838 12.2932C32.0443 12.0124 31.4648 11.6918 30.8543 11.354C29.2446 10.4633 27.4196 9.45339 25.5452 8.74113C23.2778 7.87955 20.1129 6.76332 17.7024 6.58935C16.6334 6.51221 15.7085 6.48553 14.8403 6.46048C13.0494 6.40882 11.4993 6.3641 9.42279 5.89787C9.09337 5.82391 8.76697 6.03377 8.69377 6.3666C8.62056 6.69943 8.82827 7.02921 9.15769 7.10317C11.3479 7.59494 13.0724 7.64583 14.9275 7.70058C15.777 7.72565 16.6538 7.75152 17.6153 7.82091C19.8209 7.98009 22.823 9.02586 25.115 9.8968C26.9027 10.5761 28.6031 11.5171 30.1886 12.3945C30.8059 12.7362 31.4059 13.0682 31.9867 13.3713C32.1737 13.5023 32.3925 13.6278 32.5871 13.7395C32.6306 13.7645 32.6729 13.7887 32.7133 13.8122C32.9684 13.9603 33.181 14.093 33.3433 14.2344C33.5039 14.3742 33.5704 14.4846 33.5937 14.5718C33.6134 14.6454 33.6244 14.7825 33.5009 15.0321C33.3864 15.2634 33.225 15.384 32.9905 15.4444C32.7262 15.5125 32.3558 15.5044 31.8698 15.4011C30.8942 15.1938 29.7016 14.6625 28.4757 14.1008C27.1917 13.5125 25.7775 13.2102 24.7018 13.0534C24.1605 12.9745 23.697 12.9313 23.3676 12.9078C23.2028 12.896 23.0711 12.8891 22.9796 12.8852C22.9339 12.8832 22.8981 12.882 22.8733 12.8812L22.8443 12.8804L22.8361 12.8802L22.8336 12.8802C22.8335 12.8802 22.8322 12.8801 22.8207 13.4974L22.8322 12.8801C22.5873 12.8755 22.3634 13.019 22.2631 13.2448C22.1629 13.4706 22.2059 13.735 22.3722 13.9166C22.6825 14.2555 22.7661 14.7531 22.5781 15.1457C22.4055 15.5063 21.91 15.9505 20.7103 15.9505C18.7634 15.9505 17.2796 16.4536 16.1384 16.8406C15.7595 16.9691 15.4183 17.0848 15.1105 17.1649C12.8775 17.3992 8.19542 17.6356 5.63258 13.2336C5.46149 12.9397 5.08699 12.8416 4.79613 13.0145C4.50526 13.1874 4.40817 13.5658 4.57927 13.8596Z" fill="#1F0D02"/>
<path fill-rule="evenodd" clip-rule="evenodd" d="M23.2709 15.053C23.6083 15.053 23.8819 14.7766 23.8819 14.4356C23.8819 13.7581 23.55 13.2719 23.071 12.9732C22.6324 12.6997 22.0842 12.588 21.5837 12.5399C21.0708 12.4906 20.5347 12.5023 20.0769 12.5239C19.887 12.5329 19.7179 12.543 19.5678 12.5519C19.3333 12.5658 19.1451 12.577 18.9962 12.577C18.9703 12.577 18.9445 12.5787 18.9188 12.582L16.3243 12.9166C15.511 12.6465 14.6447 12.3945 13.8598 12.2062C13.0467 12.0112 12.2725 11.8724 11.7311 11.8724C11.3936 11.8724 11.1201 12.1488 11.1201 12.4898C11.1201 12.8307 11.3936 13.1071 11.7311 13.1071C12.1195 13.1071 12.7749 13.215 13.5775 13.4075C14.3652 13.5964 15.2485 13.8554 16.0709 14.1323C16.1579 14.1617 16.2504 14.1708 16.3414 14.1591L19.0368 13.8115C19.2144 13.8096 19.4493 13.7958 19.6978 13.7812C19.8415 13.7728 19.9897 13.7641 20.134 13.7573C20.5757 13.7364 21.0429 13.7282 21.468 13.769C21.9053 13.811 22.2297 13.8995 22.4292 14.0239C22.5882 14.1231 22.6599 14.2324 22.6599 14.4356C22.6599 14.7766 22.9334 15.053 23.2709 15.053Z" fill="#1F0D02"/>
<path fill-rule="evenodd" clip-rule="evenodd" d="M20.1636 23.911C20.1636 23.5701 20.4371 23.2937 20.7746 23.2937H37.8831C38.2205 23.2937 38.4941 23.5701 38.4941 23.911V36.258C38.4941 37.2809 37.6734 38.1101 36.661 38.1101H21.9966C20.9843 38.1101 20.1636 37.2809 20.1636 36.258V23.911ZM21.3856 24.5284V36.258C21.3856 36.599 21.6592 36.8754 21.9966 36.8754H36.661C36.9985 36.8754 37.2721 36.599 37.2721 36.258V24.5284H21.3856Z" fill="#1F0D02"/>
<path fill-rule="evenodd" clip-rule="evenodd" d="M26.2737 23.911C26.2737 23.5701 26.5473 23.2937 26.8848 23.2937H31.7729C32.1104 23.2937 32.3839 23.5701 32.3839 23.911V27.6151C32.3839 27.8352 32.268 28.0386 32.0796 28.1491C31.8912 28.2595 31.6589 28.2603 31.4697 28.1511L30.5509 27.6206L29.632 28.1511C29.4441 28.2596 29.2135 28.2596 29.0257 28.1511L28.1068 27.6206L27.1879 28.1511C26.9988 28.2603 26.7665 28.2595 26.5781 28.1491C26.3897 28.0386 26.2737 27.8352 26.2737 27.6151V23.911ZM27.4958 24.5284V26.5513L27.8036 26.3736C27.9915 26.2651 28.2221 26.2651 28.4099 26.3736L29.3288 26.9041L30.2477 26.3736C30.4356 26.2651 30.6662 26.2651 30.854 26.3736L31.1619 26.5513V24.5284H27.4958Z" fill="#1F0D02"/>
<path fill-rule="evenodd" clip-rule="evenodd" d="M18.9415 21.4416C18.9415 20.4188 19.7622 19.5896 20.7746 19.5896H37.8831C38.8954 19.5896 39.7161 20.4188 39.7161 21.4416V22.6763C39.7161 23.6992 38.8954 24.5284 37.8831 24.5284H20.7746C19.7622 24.5284 18.9415 23.6992 18.9415 22.6763V21.4416ZM20.7746 20.8243C20.4371 20.8243 20.1636 21.1007 20.1636 21.4416V22.6763C20.1636 23.0173 20.4371 23.2937 20.7746 23.2937H37.8831C38.2205 23.2937 38.4941 23.0173 38.4941 22.6763V21.4416C38.4941 21.1007 38.2205 20.8243 37.8831 20.8243H20.7746Z" fill="#1F0D02"/>
</svg>
