<svg width="60" height="60" viewBox="0 0 60 60" fill="none" xmlns="http://www.w3.org/2000/svg">
<path d="M32.4645 33.6274H20.2442C19.5693 33.6274 19.0222 34.1802 19.0222 34.8621V44.7397C19.0222 45.4216 19.5693 45.9744 20.2442 45.9744H32.4645C33.1394 45.9744 33.6866 45.4216 33.6866 44.7397V34.8621C33.6866 34.1802 33.1394 33.6274 32.4645 33.6274Z" fill="#FFBD7F"/>
<path d="M21.4662 36.0969H25.1324V38.5663H21.4662V36.0969Z" fill="#FFF6A2"/>
<path d="M19.0222 22.5152C19.0222 21.8333 19.5693 21.2805 20.2442 21.2805H32.4645C33.1394 21.2805 33.6866 21.8333 33.6866 22.5152V32.3928C33.6866 33.0747 33.1394 33.6275 32.4645 33.6275H20.2442C19.5693 33.6275 19.0222 33.0747 19.0222 32.3928V22.5152Z" fill="#FFBD7F"/>
<path d="M21.4662 23.75H25.1324V26.2194H21.4662V23.75Z" fill="#FFF6A2"/>
<path d="M19.0222 10.1683C19.0222 9.48639 19.5693 8.93359 20.2442 8.93359H32.4645C33.1394 8.93359 33.6866 9.48639 33.6866 10.1683V20.0459C33.6866 20.7278 33.1394 21.2806 32.4645 21.2806H20.2442C19.5693 21.2806 19.0222 20.7278 19.0222 20.0459V10.1683Z" fill="#FFBD7F"/>
<path d="M21.4662 11.4031H25.1324V13.8725H21.4662V11.4031Z" fill="#FFF6A2"/>
<path d="M33.6866 34.8621C33.6866 34.1802 34.2337 33.6274 34.9086 33.6274H47.129C47.8039 33.6274 48.351 34.1802 48.351 34.8621V44.7397C48.351 45.4216 47.8039 45.9744 47.129 45.9744H34.9086C34.2337 45.9744 33.6866 45.4216 33.6866 44.7397V34.8621Z" fill="#FFBD7F"/>
<path d="M36.1307 36.0969H39.7968V38.5663H36.1307V36.0969Z" fill="#FFF6A2"/>
<path d="M33.6866 22.5152C33.6866 21.8333 34.2337 21.2805 34.9086 21.2805H47.129C47.8039 21.2805 48.351 21.8333 48.351 22.5152V32.3928C48.351 33.0747 47.8039 33.6275 47.129 33.6275H34.9086C34.2337 33.6275 33.6866 33.0747 33.6866 32.3928V22.5152Z" fill="#FFBD7F"/>
<path d="M36.1307 23.75H39.7968V26.2194H36.1307V23.75Z" fill="#FFF6A2"/>
<path fill-rule="evenodd" clip-rule="evenodd" d="M34.2976 34.6308C34.2976 34.2898 34.5712 34.0134 34.9086 34.0134H46.4607C46.7981 34.0134 47.0717 34.2898 47.0717 34.6308C47.0717 34.9717 46.7981 35.2481 46.4607 35.2481H35.5196V44.5083C35.5196 44.8493 35.2461 45.1257 34.9086 45.1257C34.5712 45.1257 34.2976 44.8493 34.2976 44.5083V34.6308Z" fill="#FFDAB8"/>
<path fill-rule="evenodd" clip-rule="evenodd" d="M34.2976 22.2839C34.2976 21.9429 34.5712 21.6665 34.9086 21.6665H46.4607C46.7981 21.6665 47.0717 21.9429 47.0717 22.2839C47.0717 22.6248 46.7981 22.9012 46.4607 22.9012H35.5196V32.1614C35.5196 32.5024 35.2461 32.7788 34.9086 32.7788C34.5712 32.7788 34.2976 32.5024 34.2976 32.1614V22.2839Z" fill="#FFDAB8"/>
<path fill-rule="evenodd" clip-rule="evenodd" d="M19.6332 34.6308C19.6332 34.2898 19.9067 34.0134 20.2442 34.0134H31.7962C32.1337 34.0134 32.4073 34.2898 32.4073 34.6308C32.4073 34.9717 32.1337 35.2481 31.7962 35.2481H20.8552V44.5083C20.8552 44.8493 20.5817 45.1257 20.2442 45.1257C19.9067 45.1257 19.6332 44.8493 19.6332 44.5083V34.6308Z" fill="#FFDAB8"/>
<path fill-rule="evenodd" clip-rule="evenodd" d="M19.6332 22.2839C19.6332 21.9429 19.9067 21.6665 20.2442 21.6665H31.7962C32.1337 21.6665 32.4073 21.9429 32.4073 22.2839C32.4073 22.6248 32.1337 22.9012 31.7962 22.9012H20.8552V32.1614C20.8552 32.5024 20.5817 32.7788 20.2442 32.7788C19.9067 32.7788 19.6332 32.5024 19.6332 32.1614V22.2839Z" fill="#FFDAB8"/>
<path fill-rule="evenodd" clip-rule="evenodd" d="M19.6332 9.93668C19.6332 9.59573 19.9067 9.31934 20.2442 9.31934H31.7962C32.1337 9.31934 32.4073 9.59573 32.4073 9.93668C32.4073 10.2776 32.1337 10.554 31.7962 10.554H20.8552V19.8143C20.8552 20.1552 20.5817 20.4316 20.2442 20.4316C19.9067 20.4316 19.6332 20.1552 19.6332 19.8143V9.93668Z" fill="#FFDAB8"/>
<path d="M52.0171 48.444V47.2093C52.0171 46.5274 51.47 45.9746 50.7951 45.9746H21.4662C20.7913 45.9746 20.2442 46.5274 20.2442 47.2093V48.444C20.2442 49.1259 20.7913 49.6787 21.4662 49.6787H50.7951C51.47 49.6787 52.0171 49.1259 52.0171 48.444Z" fill="#9D2374"/>
<path fill-rule="evenodd" clip-rule="evenodd" d="M22.0963 47.132C22.0963 46.791 22.3699 46.5146 22.7074 46.5146H50.2031C50.5406 46.5146 50.8142 46.791 50.8142 47.132C50.8142 47.4729 50.5406 47.7493 50.2031 47.7493H22.7074C22.3699 47.7493 22.0963 47.4729 22.0963 47.132Z" fill="#9D2374"/>
<path d="M11.69 21.7136L11.69 41.0356C12.5747 40.8234 14.5465 40.5263 15.3561 41.0356L15.3561 20.4789C15.3561 20.1985 15.2616 19.9265 15.0883 19.7076L11.2577 14.8697C10.7832 14.2705 9.98919 14.0336 9.26856 14.2762C8.07185 14.6793 7.63811 16.1632 8.42614 17.1585L11.4222 20.9423C11.5955 21.1612 11.69 21.4332 11.69 21.7136Z" fill="#9D2374"/>
<path d="M20.2442 47.2091C20.2442 50.6186 17.5086 53.3826 14.134 53.3826C10.7595 53.3826 8.02386 50.6186 8.02386 47.2091C8.02386 43.7996 10.7595 41.0356 14.134 41.0356C17.5086 41.0356 20.2442 43.7996 20.2442 47.2091Z" fill="#9D2374"/>
<path fill-rule="evenodd" clip-rule="evenodd" d="M14.9728 42.9544C14.9728 43.2954 14.6993 43.5718 14.3618 43.5718C12.2063 43.5718 10.459 45.3373 10.459 47.5151C10.459 47.856 10.1854 48.1324 9.84796 48.1324C9.51051 48.1324 9.23695 47.856 9.23695 47.5151C9.23695 44.6554 11.5314 42.3371 14.3618 42.3371C14.6993 42.3371 14.9728 42.6135 14.9728 42.9544Z" fill="#9D2374"/>
<path fill-rule="evenodd" clip-rule="evenodd" d="M8.40591 16.1684C8.66942 15.9554 9.05393 15.9986 9.26474 16.2648L12.6631 20.5567C12.9231 20.8851 13.0647 21.2931 13.0647 21.7137L13.0647 41.0357C13.0647 41.3767 12.7912 41.6531 12.4537 41.6531C12.1163 41.6531 11.8427 41.3767 11.8427 41.0357L11.8427 21.7137C11.8427 21.5735 11.7955 21.4375 11.7088 21.328L8.31049 17.0361C8.09968 16.7699 8.14241 16.3814 8.40591 16.1684Z" fill="#9D2374"/>
<path fill-rule="evenodd" clip-rule="evenodd" d="M19.6332 45.9748C19.6332 45.6338 19.9067 45.3574 20.2442 45.3574H50.7951C51.8074 45.3574 52.6281 46.1866 52.6281 47.2095V48.4442C52.6281 49.467 51.8074 50.2962 50.7951 50.2962H20.2442C19.9067 50.2962 19.6332 50.0198 19.6332 49.6789C19.6332 49.3379 19.9067 49.0615 20.2442 49.0615H50.7951C51.1325 49.0615 51.4061 48.7851 51.4061 48.4442V47.2095C51.4061 46.8685 51.1325 46.5921 50.7951 46.5921H20.2442C19.9067 46.5921 19.6332 46.3157 19.6332 45.9748Z" fill="#1F0D02"/>
<path fill-rule="evenodd" clip-rule="evenodd" d="M7.949 17.5444C6.89541 16.2138 7.47531 14.2298 9.07533 13.6909C10.0388 13.3664 11.1004 13.6832 11.7348 14.4844L15.5654 19.3223C15.8254 19.6507 15.9671 20.0587 15.9671 20.4792L15.9671 41.036C15.9671 41.3769 15.6935 41.6533 15.356 41.6533C15.0186 41.6533 14.745 41.3769 14.745 41.036L14.745 20.4792C14.745 20.3391 14.6978 20.203 14.6111 20.0936L10.7805 15.2557C10.4659 14.8584 9.93954 14.7013 9.46177 14.8622C8.66836 15.1295 8.38079 16.1133 8.90325 16.7731L11.8993 20.557C12.1593 20.8854 12.301 21.2934 12.301 21.7139L12.301 31.375L12.301 41.036C12.301 41.3769 12.0274 41.6533 11.6899 41.6533C11.3525 41.6533 11.0789 41.3769 11.0789 41.036L11.0789 21.7139C11.0789 21.5737 11.0317 21.4377 10.945 21.3283L7.949 17.5444Z" fill="#1F0D02"/>
<path fill-rule="evenodd" clip-rule="evenodd" d="M18.4111 34.8623C18.4111 33.8394 19.2318 33.0103 20.2442 33.0103H32.4645C33.4769 33.0103 34.2976 33.8394 34.2976 34.8623V44.7399C34.2976 45.7627 33.4769 46.5919 32.4645 46.5919H20.2442C19.9067 46.5919 19.6332 46.3155 19.6332 45.9746C19.6332 45.6336 19.9067 45.3572 20.2442 45.3572H32.4645C32.802 45.3572 33.0755 45.0808 33.0755 44.7399V34.8623C33.0755 34.5213 32.802 34.245 32.4645 34.245H20.2442C19.9067 34.245 19.6332 34.5213 19.6332 34.8623V43.5052C19.6332 43.8461 19.3596 44.1225 19.0222 44.1225C18.6847 44.1225 18.4111 43.8461 18.4111 43.5052V34.8623Z" fill="#1F0D02"/>
<path fill-rule="evenodd" clip-rule="evenodd" d="M20.8552 36.0971C20.8552 35.7561 21.1288 35.4797 21.4662 35.4797H25.1323C25.4698 35.4797 25.7434 35.7561 25.7434 36.0971V38.5665C25.7434 38.9074 25.4698 39.1838 25.1323 39.1838H21.4662C21.1288 39.1838 20.8552 38.9074 20.8552 38.5665V36.0971ZM22.0773 36.7144V37.9491H24.5213V36.7144H22.0773Z" fill="#1F0D02"/>
<path fill-rule="evenodd" clip-rule="evenodd" d="M18.4111 22.5154C18.4111 21.4925 19.2318 20.6633 20.2442 20.6633H32.4645C33.4769 20.6633 34.2976 21.4925 34.2976 22.5154V32.393C34.2976 33.4158 33.4769 34.245 32.4645 34.245H20.2442C19.2318 34.245 18.4111 33.4158 18.4111 32.393V22.5154ZM20.2442 21.898C19.9067 21.898 19.6332 22.1744 19.6332 22.5154V32.393C19.6332 32.7339 19.9067 33.0103 20.2442 33.0103H32.4645C32.802 33.0103 33.0755 32.7339 33.0755 32.393V22.5154C33.0755 22.1744 32.802 21.898 32.4645 21.898H20.2442Z" fill="#1F0D02"/>
<path fill-rule="evenodd" clip-rule="evenodd" d="M20.8552 23.7502C20.8552 23.4092 21.1288 23.1328 21.4662 23.1328H25.1323C25.4698 23.1328 25.7434 23.4092 25.7434 23.7502V26.2196C25.7434 26.5605 25.4698 26.8369 25.1323 26.8369H21.4662C21.1288 26.8369 20.8552 26.5605 20.8552 26.2196V23.7502ZM22.0773 24.3675V25.6022H24.5213V24.3675H22.0773Z" fill="#1F0D02"/>
<path fill-rule="evenodd" clip-rule="evenodd" d="M18.4111 10.1685C18.4111 9.1456 19.2318 8.31641 20.2442 8.31641H32.4645C33.4769 8.31641 34.2976 9.1456 34.2976 10.1685V20.046C34.2976 21.0689 33.4769 21.8981 32.4645 21.8981H20.2442C19.2318 21.8981 18.4111 21.0689 18.4111 20.046V10.1685ZM20.2442 9.5511C19.9067 9.5511 19.6332 9.8275 19.6332 10.1685V20.046C19.6332 20.387 19.9067 20.6634 20.2442 20.6634H32.4645C32.802 20.6634 33.0755 20.387 33.0755 20.046V10.1685C33.0755 9.8275 32.802 9.5511 32.4645 9.5511H20.2442Z" fill="#1F0D02"/>
<path fill-rule="evenodd" clip-rule="evenodd" d="M20.8552 11.4032C20.8552 11.0623 21.1288 10.7859 21.4662 10.7859H25.1323C25.4698 10.7859 25.7434 11.0623 25.7434 11.4032V13.8726C25.7434 14.2136 25.4698 14.49 25.1323 14.49H21.4662C21.1288 14.49 20.8552 14.2136 20.8552 13.8726V11.4032ZM22.0773 12.0206V13.2553H24.5213V12.0206H22.0773Z" fill="#1F0D02"/>
<path fill-rule="evenodd" clip-rule="evenodd" d="M33.0755 34.8623C33.0755 33.8394 33.8962 33.0103 34.9086 33.0103H47.1289C48.1413 33.0103 48.962 33.8394 48.962 34.8623V44.7399C48.962 45.7627 48.1413 46.5919 47.1289 46.5919H34.9086C33.8962 46.5919 33.0755 45.7627 33.0755 44.7399V34.8623ZM34.9086 34.245C34.5711 34.245 34.2976 34.5213 34.2976 34.8623V44.7399C34.2976 45.0808 34.5711 45.3572 34.9086 45.3572H47.1289C47.4664 45.3572 47.74 45.0808 47.74 44.7399V34.8623C47.74 34.5213 47.4664 34.245 47.1289 34.245H34.9086Z" fill="#1F0D02"/>
<path fill-rule="evenodd" clip-rule="evenodd" d="M35.5196 36.0971C35.5196 35.7561 35.7932 35.4797 36.1306 35.4797H39.7967C40.1342 35.4797 40.4077 35.7561 40.4077 36.0971V38.5665C40.4077 38.9074 40.1342 39.1838 39.7967 39.1838H36.1306C35.7932 39.1838 35.5196 38.9074 35.5196 38.5665V36.0971ZM36.7416 36.7144V37.9491H39.1857V36.7144H36.7416Z" fill="#1F0D02"/>
<path fill-rule="evenodd" clip-rule="evenodd" d="M33.0755 22.5154C33.0755 21.4925 33.8962 20.6633 34.9086 20.6633H47.1289C48.1413 20.6633 48.962 21.4925 48.962 22.5154V32.393C48.962 33.4158 48.1413 34.245 47.1289 34.245H34.9086C33.8962 34.245 33.0755 33.4158 33.0755 32.393V22.5154ZM34.9086 21.898C34.5711 21.898 34.2976 22.1744 34.2976 22.5154V32.393C34.2976 32.7339 34.5711 33.0103 34.9086 33.0103H47.1289C47.4664 33.0103 47.74 32.7339 47.74 32.393V22.5154C47.74 22.1744 47.4664 21.898 47.1289 21.898H34.9086Z" fill="#1F0D02"/>
<path fill-rule="evenodd" clip-rule="evenodd" d="M35.5196 23.7502C35.5196 23.4092 35.7932 23.1328 36.1306 23.1328H39.7967C40.1342 23.1328 40.4077 23.4092 40.4077 23.7502V26.2196C40.4077 26.5605 40.1342 26.8369 39.7967 26.8369H36.1306C35.7932 26.8369 35.5196 26.5605 35.5196 26.2196V23.7502ZM36.7416 24.3675V25.6022H39.1857V24.3675H36.7416Z" fill="#1F0D02"/>
<path fill-rule="evenodd" clip-rule="evenodd" d="M14.134 41.6532C11.0969 41.6532 8.63488 44.1407 8.63488 47.2093C8.63488 50.2779 11.0969 52.7654 14.134 52.7654C17.1711 52.7654 19.6332 50.2779 19.6332 47.2093C19.6332 44.1407 17.1711 41.6532 14.134 41.6532ZM7.41284 47.2093C7.41284 43.4588 10.422 40.4185 14.134 40.4185C17.846 40.4185 20.8552 43.4588 20.8552 47.2093C20.8552 50.9598 17.846 54.0001 14.134 54.0001C10.422 54.0001 7.41284 50.9598 7.41284 47.2093Z" fill="#1F0D02"/>
<path fill-rule="evenodd" clip-rule="evenodd" d="M6.1908 53.3827C6.1908 53.0418 6.46436 52.7654 6.80181 52.7654H53.2391C53.5766 52.7654 53.8501 53.0418 53.8501 53.3827C53.8501 53.7237 53.5766 54.0001 53.2391 54.0001H6.80181C6.46436 54.0001 6.1908 53.7237 6.1908 53.3827Z" fill="#1F0D02"/>
</svg>
