<svg width="59" height="60" viewBox="0 0 59 60" fill="none" xmlns="http://www.w3.org/2000/svg">
<g clip-path="url(#clip0)">
<path d="M19.8608 22.7806C19.8608 22.0987 20.408 21.5459 21.0829 21.5459H38.1914C38.8663 21.5459 39.4134 22.0987 39.4134 22.7806V37.597C39.4134 38.2789 38.8663 38.8317 38.1914 38.8317H21.0829C20.408 38.8317 19.8608 38.2789 19.8608 37.597V22.7806Z" fill="#FFBD7F"/>
<path fill-rule="evenodd" clip-rule="evenodd" d="M21.0829 23.3979C21.0829 23.0569 21.3564 22.7805 21.6939 22.7805H37.5804C37.9178 22.7805 38.1914 23.0569 38.1914 23.3979C38.1914 23.7388 37.9178 24.0152 37.5804 24.0152H22.3049V36.9795C22.3049 37.3205 22.0314 37.5969 21.6939 37.5969C21.3564 37.5969 21.0829 37.3205 21.0829 36.9795V23.3979Z" fill="#FFDAB8"/>
<path d="M25.971 21.5459H33.3032V26.4847L31.4702 25.7791L29.6371 26.4847L27.8041 25.7791L25.971 26.4847V21.5459Z" fill="#FFF6A2"/>
<path fill-rule="evenodd" clip-rule="evenodd" d="M27.1931 23.3979C27.1931 23.0569 27.4666 22.7805 27.8041 22.7805H31.4702C31.8076 22.7805 32.0812 23.0569 32.0812 23.3979C32.0812 23.7388 31.8076 24.0152 31.4702 24.0152H27.8041C27.4666 24.0152 27.1931 23.7388 27.1931 23.3979Z" fill="#FFFBDC"/>
<path d="M7.13911 37.8114L7.6539 51.4872C8.35648 52.2547 10.4661 53.5285 13.2837 52.4841L12.3718 27.9765C12.3068 26.4057 10.9939 25.1856 9.43923 25.2513C7.8846 25.317 6.67701 26.6435 6.74201 28.2143L7.13911 37.8114Z" fill="#9D2374"/>
<path d="M8.75452 25.519C7.71452 26.0967 7.33496 27.4169 7.90674 28.4676L12.201 36.3593C12.3877 36.7024 12.6527 36.9743 12.9612 37.1649C13.119 37.2918 13.2973 37.3982 13.4938 37.4787L20.4011 40.3063C21.5011 40.7566 22.7541 40.2207 23.1998 39.1094C23.6454 37.998 23.115 36.732 22.0151 36.2818L15.6443 33.6737L11.6729 26.3756C11.1011 25.3248 9.79452 24.9413 8.75452 25.519Z" fill="#9D2374"/>
<path d="M14.1897 20.227C13.4775 22.4327 11.1305 23.6374 8.94747 22.9179C6.76444 22.1984 5.57205 19.827 6.2842 17.6214C6.99636 15.4157 9.34337 14.211 11.5264 14.9305C13.7094 15.65 14.9018 18.0214 14.1897 20.227Z" fill="#FFDDB6"/>
<path fill-rule="evenodd" clip-rule="evenodd" d="M11.5247 15.5939C11.5247 15.9348 11.2511 16.2112 10.9137 16.2112C9.29978 16.2112 7.99146 17.5331 7.99146 19.1637C7.99146 19.5047 7.7179 19.7811 7.38044 19.7811C7.04299 19.7811 6.76942 19.5047 6.76942 19.1637C6.76942 16.8512 8.62487 14.9765 10.9137 14.9765C11.2511 14.9765 11.5247 15.2529 11.5247 15.5939Z" fill="#FFF0DF"/>
<path fill-rule="evenodd" clip-rule="evenodd" d="M10.5913 25.3759C10.7538 25.6747 10.6459 26.0501 10.3502 26.2143C9.60592 26.6278 9.33428 27.5726 9.74349 28.3246L14.0378 36.2162C14.2004 36.515 14.0924 36.8904 13.7967 37.0546C13.501 37.2189 13.1295 37.1099 12.9669 36.8111L8.67263 28.9194C7.93826 27.5699 8.42575 25.8744 9.76146 25.1324C10.0572 24.9681 10.4287 25.0772 10.5913 25.3759Z" fill="#9D2374"/>
<path fill-rule="evenodd" clip-rule="evenodd" d="M7.74606 27.2576C8.08322 27.2434 8.36797 27.508 8.38206 27.8487L8.77926 37.4481L9.29405 51.1239C9.30687 51.4646 9.0439 51.7513 8.70669 51.7643C8.36948 51.7772 8.08572 51.5116 8.07289 51.1708L7.5582 37.4973L7.55811 37.495L7.1611 27.9002C7.147 27.5596 7.4089 27.2719 7.74606 27.2576Z" fill="#9D2374"/>
<path d="M43.2215 52.8338L43.3865 41.9387L45.339 28.3528C45.5685 26.7979 47.0021 25.7254 48.5411 25.9573C50.0801 26.1892 51.1416 27.6377 50.9121 29.1926L49.0206 42.0258L48.8556 52.9209C47.2104 53.8825 44.4141 53.2635 43.2215 52.8338Z" fill="#727272"/>
<path fill-rule="evenodd" clip-rule="evenodd" d="M49.0841 25.7806C50.1402 26.3672 50.5256 27.7077 49.945 28.7747L45.2569 37.3901C45.0131 37.8381 44.6378 38.1666 44.2062 38.3536C43.9668 38.6543 43.6452 38.8957 43.2572 39.0382L36.4252 41.5479C35.376 41.9333 34.2086 41.4521 33.7256 40.4352C33.1702 39.2657 33.7348 37.8674 34.9413 37.4242L41.5865 34.9831L46.1208 26.6504C46.7014 25.5834 48.0281 25.194 49.0841 25.7806Z" fill="#727272"/>
<path d="M44.0363 20.8391C44.7485 23.0447 47.0955 24.2495 49.2785 23.5299C51.4616 22.8104 52.654 20.4391 51.9418 18.2334C51.2297 16.0278 48.8826 14.823 46.6996 15.5426C44.5166 16.2621 43.3242 18.6334 44.0363 20.8391Z" fill="#FFDDB6"/>
<path d="M46.6996 15.5426C48.8826 14.823 51.2297 16.0278 51.9418 18.2334C52.2262 19.1141 52.2069 20.0213 51.9421 20.8391L45.2638 16.3622C45.6712 16.0049 46.1545 15.7222 46.6996 15.5426Z" fill="#727272"/>
<path fill-rule="evenodd" clip-rule="evenodd" d="M46.0436 27.3457C46.7868 25.98 48.485 25.4816 49.8368 26.2324C50.1325 26.3967 50.2404 26.7721 50.0778 27.0708C49.9152 27.3696 49.5437 27.4787 49.248 27.3144C48.4897 26.8931 47.5374 27.171 47.1177 27.9346L42.7817 36.3765C42.7102 36.5158 42.5888 36.6224 42.4422 36.6745L35.6065 39.1053C35.2882 39.2185 34.9393 39.0495 34.8273 38.7279C34.7152 38.4063 34.8825 38.0538 35.2008 37.9406L41.8084 35.5909L46.0436 27.3457Z" fill="#727272"/>
<path fill-rule="evenodd" clip-rule="evenodd" d="M19.2499 22.7808C19.2499 21.7579 20.0706 20.9287 21.0829 20.9287H38.1914C39.2038 20.9287 40.0245 21.7579 40.0245 22.7808V35.5714C40.0245 35.9124 39.7509 36.1888 39.4135 36.1888C39.076 36.1888 38.8024 35.9124 38.8024 35.5714V22.7808C38.8024 22.4398 38.5289 22.1634 38.1914 22.1634H21.0829C20.7455 22.1634 20.4719 22.4398 20.4719 22.7808V35.1277C20.4719 35.4687 20.1984 35.7451 19.8609 35.7451C19.5234 35.7451 19.2499 35.4687 19.2499 35.1277V22.7808ZM22.916 38.8318C22.916 38.4909 23.1895 38.2145 23.527 38.2145H33.9143C34.2518 38.2145 34.5253 38.4909 34.5253 38.8318C34.5253 39.1728 34.2518 39.4492 33.9143 39.4492H23.527C23.1895 39.4492 22.916 39.1728 22.916 38.8318Z" fill="#1F0D02"/>
<path fill-rule="evenodd" clip-rule="evenodd" d="M25.36 21.5461C25.36 21.2051 25.6336 20.9287 25.9711 20.9287H33.3033C33.6407 20.9287 33.9143 21.2051 33.9143 21.5461V26.4848C33.9143 26.6879 33.8155 26.878 33.65 26.9932C33.4845 27.1084 33.2736 27.134 33.0858 27.0618L31.4702 26.4399L29.8547 27.0618C29.7146 27.1157 29.5598 27.1157 29.4196 27.0618L27.8041 26.4399L26.1886 27.0618C26.0008 27.134 25.7898 27.1084 25.6243 26.9932C25.4589 26.878 25.36 26.6879 25.36 26.4848V21.5461ZM26.5821 22.1634V25.589L27.5866 25.2024C27.7267 25.1485 27.8815 25.1485 28.0216 25.2024L29.6372 25.8242L31.2527 25.2024C31.3928 25.1485 31.5476 25.1485 31.6877 25.2024L32.6923 25.589V22.1634H26.5821Z" fill="#1F0D02"/>
<path fill-rule="evenodd" clip-rule="evenodd" d="M46.8891 16.1295C48.7513 15.5157 50.7534 16.5434 51.3609 18.4249C51.9684 20.3065 50.9513 22.3293 49.089 22.9431C47.2268 23.5569 45.2247 22.5292 44.6172 20.6477C44.0097 18.7662 45.0269 16.7433 46.8891 16.1295ZM52.5227 18.042C51.7059 15.5122 49.014 14.1304 46.5101 14.9557C44.0063 15.781 42.6386 18.5008 43.4555 21.0306C44.2723 23.5604 46.9642 24.9422 49.468 24.1169C51.9719 23.2916 53.3395 20.5718 52.5227 18.042Z" fill="#1F0D02"/>
<path fill-rule="evenodd" clip-rule="evenodd" d="M41.0335 13.8886C41.2119 13.5992 41.5888 13.5108 41.8752 13.6912L52.4152 20.3276C52.7016 20.508 52.7891 20.8887 52.6106 21.1781C52.4322 21.4675 52.0553 21.5558 51.7689 21.3755L41.2289 14.739C40.9425 14.5587 40.855 14.1779 41.0335 13.8886Z" fill="#1F0D02"/>
<path fill-rule="evenodd" clip-rule="evenodd" d="M48.1785 25.4193C48.297 25.1001 48.6492 24.9383 48.9651 25.058C50.5742 25.6677 51.7938 27.4045 51.5165 29.2837C51.5165 29.2837 51.5165 29.2836 51.5165 29.2837L49.631 42.0764L49.4666 52.9305C49.4615 53.2714 49.1837 53.5435 48.8463 53.5383C48.5089 53.5331 48.2396 53.2525 48.2447 52.9116L48.4098 42.0165C48.4102 41.9892 48.4124 41.962 48.4163 41.935L50.3078 29.1018C50.4894 27.8712 49.6765 26.6462 48.5361 26.2141C48.2201 26.0944 48.06 25.7385 48.1785 25.4193ZM43.8334 38.6052C44.1682 38.6475 44.4057 38.9561 44.3637 39.2944L44.2355 40.3293L43.997 41.9881L43.8326 52.8434C43.8274 53.1843 43.5497 53.4564 43.2123 53.4512C42.8748 53.446 42.6055 53.1654 42.6107 52.8245L42.7757 41.9294C42.7761 41.9029 42.7782 41.8764 42.782 41.8501L43.0251 40.1579L43.1512 39.141C43.1931 38.8027 43.4985 38.5628 43.8334 38.6052Z" fill="#1F0D02"/>
<path fill-rule="evenodd" clip-rule="evenodd" d="M46.6562 26.9481C47.0742 26.1799 48.0294 25.8996 48.7897 26.3219C49.55 26.7443 49.8275 27.7094 49.4095 28.4776L44.3635 37.7508C44.1595 38.1256 43.8288 38.3837 43.4536 38.5017C43.4384 38.5064 43.4234 38.5118 43.4087 38.5177C43.3935 38.5238 43.3781 38.5298 43.3625 38.5355L36.5306 41.0452C35.7766 41.3221 34.9377 40.9763 34.5906 40.2456C34.1915 39.4052 34.5972 38.4003 35.4642 38.0818L41.6643 35.8042C41.8035 35.7531 41.9196 35.6526 41.9909 35.5215L46.6562 26.9481ZM49.3785 25.24C48.0268 24.4891 46.3285 24.9875 45.5853 26.3533L41.0308 34.7232L35.0466 36.9214C33.5006 37.4894 32.7771 39.2812 33.4888 40.7797C34.1077 42.0828 35.6037 42.6994 36.9482 42.2056L43.7801 39.6959C43.7999 39.6886 43.8196 39.6811 43.8391 39.6734C44.4949 39.4612 45.0761 39.0039 45.4343 38.3456L50.4804 29.0724C51.2236 27.7067 50.7302 25.9908 49.3785 25.24Z" fill="#1F0D02"/>
<path fill-rule="evenodd" clip-rule="evenodd" d="M11.5386 15.4157C9.67641 14.8019 7.67431 15.8296 7.06682 17.7111C6.45932 19.5926 7.47648 21.6154 9.33869 22.2292C11.2009 22.843 13.203 21.8153 13.8105 19.9338C14.418 18.0523 13.4008 16.0295 11.5386 15.4157ZM5.90504 17.3282C6.72185 14.7984 9.41377 13.4166 11.9176 14.2418C14.4215 15.0671 15.7891 17.7869 14.9723 20.3167C14.1555 22.8465 11.4635 24.2283 8.9597 23.403C6.45585 22.5778 5.08823 19.8579 5.90504 17.3282Z" fill="#1F0D02"/>
<path fill-rule="evenodd" clip-rule="evenodd" d="M6.33321 28.1382C6.25412 26.2268 7.7236 24.6125 9.61539 24.5326L9.87045 24.5218C11.6214 24.4479 13.1001 25.822 13.1733 27.5911L11.9524 27.6427C11.9073 26.5549 10.9981 25.71 9.9215 25.7554L9.66644 25.7662C8.44897 25.8176 7.50328 26.8565 7.55418 28.0866L7.95128 37.6837L7.95137 37.686L8.46616 51.3619C8.47899 51.7026 8.21602 51.9893 7.87881 52.0022C7.54159 52.0152 7.25783 51.7495 7.24501 51.4088L6.73032 37.7353L6.33321 28.1382ZM12.8592 36.2222C13.1964 36.2089 13.4804 36.4743 13.4936 36.815L14.0959 52.3581C14.1091 52.6988 13.8465 52.9858 13.5093 52.9991C13.1721 53.0124 12.888 52.7471 12.8748 52.4064L12.2725 36.8633C12.2593 36.5226 12.522 36.2356 12.8592 36.2222Z" fill="#1F0D02"/>
<path fill-rule="evenodd" clip-rule="evenodd" d="M11.3393 26.5712C10.93 25.8192 9.99495 25.5448 9.25066 25.9582C8.50637 26.3716 8.23473 27.3164 8.64394 28.0684L12.9382 35.9601C13.0723 36.2065 13.2616 36.4004 13.4817 36.5364C13.5032 36.5497 13.5239 36.5643 13.5436 36.5801C13.656 36.6705 13.7834 36.7468 13.925 36.8047L20.8324 39.6324C21.6196 39.9546 22.5163 39.5711 22.8352 38.7758C23.1542 37.9804 22.7746 37.0744 21.9874 36.7521L15.6166 34.1441C15.4864 34.0908 15.3783 33.9938 15.3106 33.8694L11.3393 26.5712ZM8.66191 24.8762C9.99762 24.1343 11.6757 24.6268 12.4101 25.9764L16.2768 33.0822L22.4463 35.6078C23.859 36.1861 24.5402 37.8121 23.9678 39.2394C23.3954 40.6668 21.7862 41.3551 20.3735 40.7767L13.4661 37.9491C13.2269 37.8511 13.0079 37.7227 12.8122 37.5697C12.4291 37.3256 12.1002 36.9828 11.8674 36.5549L7.57308 28.6633C6.83872 27.3137 7.3262 25.6182 8.66191 24.8762Z" fill="#1F0D02"/>
</g>
<defs>
<clipPath id="clip0">
<rect width="58.6577" height="59.2654" fill="white" transform="translate(0.308289 0.556152)"/>
</clipPath>
</defs>
</svg>
