<svg width="60" height="60" viewBox="0 0 60 60" fill="none" xmlns="http://www.w3.org/2000/svg">
<path d="M50.7952 50.5616C50.7952 52.2664 44.7769 53.6483 37.3529 53.6483C29.9289 53.6483 23.9106 52.2664 23.9106 50.5616C23.9106 48.8568 29.9289 47.4749 37.3529 47.4749C44.7769 47.4749 50.7952 48.8568 50.7952 50.5616Z" fill="#9D2374"/>
<path fill-rule="evenodd" clip-rule="evenodd" d="M37.3532 49.9437C37.3532 49.9437 49.5736 39.8417 49.5736 26.3722C49.5736 19.6375 45.7547 12.9028 37.3532 12.9028C28.9517 12.9028 25.1329 19.6375 25.1329 26.3722C25.1329 39.8417 37.3532 49.9437 37.3532 49.9437ZM37.3532 28.9539C39.378 28.9539 41.0193 27.2955 41.0193 25.2498C41.0193 23.2041 39.378 21.5457 37.3532 21.5457C35.3285 21.5457 33.6871 23.2041 33.6871 25.2498C33.6871 27.2955 35.3285 28.9539 37.3532 28.9539Z" fill="#9D2374"/>
<path fill-rule="evenodd" clip-rule="evenodd" d="M29.4949 18.3124C27.7952 20.4535 26.9657 23.3386 26.9657 26.2603C26.9657 30.8214 28.5734 34.9623 30.567 38.3409C30.7398 38.6338 30.6449 39.0127 30.3551 39.1873C30.0652 39.3619 29.6902 39.266 29.5174 38.9732C27.453 35.4747 25.7437 31.1145 25.7437 26.2603C25.7437 23.1208 26.6326 19.9447 28.5416 17.5399C30.4648 15.1172 33.3915 13.5205 37.3528 13.5205C37.6902 13.5205 37.9638 13.7969 37.9638 14.1379C37.9638 14.4788 37.6902 14.7552 37.3528 14.7552C33.7529 14.7552 31.1804 16.1891 29.4949 18.3124Z" fill="#9D2374"/>
<path d="M10.4683 19.076C10.4683 18.3941 11.0154 17.8413 11.6904 17.8413H26.3548C27.0297 17.8413 27.5768 18.3941 27.5768 19.076V32.6576C27.5768 33.3395 27.0297 33.8922 26.3548 33.8922H11.6904C11.0154 33.8922 10.4683 33.3395 10.4683 32.6576V19.076Z" fill="#FFBD7F"/>
<path d="M9.24634 17.8416C9.24634 17.1597 9.79346 16.6069 10.4684 16.6069H27.5768C28.2517 16.6069 28.7988 17.1597 28.7988 17.8416V19.0763C28.7988 19.7582 28.2517 20.311 27.5768 20.311H10.4684C9.79346 20.311 9.24634 19.7582 9.24634 19.0763V17.8416Z" fill="#FFBD7F"/>
<path d="M16.5786 20.311H21.4667V24.0151L20.2447 23.2743L19.0226 24.0151L17.8006 23.2743L16.5786 24.0151V20.311Z" fill="#FFF6A2"/>
<path fill-rule="evenodd" clip-rule="evenodd" d="M11.6904 20.9285C12.0279 20.9285 12.3014 21.2049 12.3014 21.5458V31.4234C12.3014 31.7643 12.0279 32.0407 11.6904 32.0407C11.353 32.0407 11.0794 31.7643 11.0794 31.4234V21.5458C11.0794 21.2049 11.353 20.9285 11.6904 20.9285Z" fill="#FFDAB8"/>
<path fill-rule="evenodd" clip-rule="evenodd" d="M9.85736 17.8417C9.85736 17.5008 10.1309 17.2244 10.4684 17.2244H25.5147C25.8521 17.2244 26.1257 17.5008 26.1257 17.8417C26.1257 18.1827 25.8521 18.4591 25.5147 18.4591H10.4684C10.1309 18.4591 9.85736 18.1827 9.85736 17.8417Z" fill="#FFDAB8"/>
<path fill-rule="evenodd" clip-rule="evenodd" d="M25.2851 49.9848C25.2717 49.6559 25.0035 49.3933 24.6746 49.3933C24.3372 49.3933 24.0636 49.6697 24.0636 50.0107C24.0636 50.4118 24.2727 50.7289 24.5082 50.9554C24.7435 51.1817 25.057 51.3705 25.4049 51.5324C26.1042 51.8579 27.0776 52.1352 28.2321 52.3624C30.5512 52.8189 33.7284 53.097 37.2196 53.097C40.7107 53.097 43.8879 52.8189 46.207 52.3624C47.3615 52.1352 48.3349 51.8579 49.0343 51.5324C49.3822 51.3705 49.6956 51.1817 49.9309 50.9554C50.1664 50.7289 50.3755 50.4118 50.3755 50.0107C50.3755 49.6697 50.102 49.3933 49.7645 49.3933C49.4356 49.3933 49.1674 49.6559 49.154 49.9848C49.1463 49.9976 49.128 50.023 49.0884 50.0611C48.9894 50.1562 48.81 50.2775 48.5231 50.4109C47.9528 50.6763 47.089 50.9309 45.9734 51.1505C43.7521 51.5877 40.6568 51.8623 37.2196 51.8623C33.7823 51.8623 30.687 51.5877 28.4658 51.1505C27.3501 50.9309 26.4863 50.6763 25.9161 50.4109C25.6292 50.2775 25.4497 50.1562 25.3508 50.0611C25.3111 50.023 25.2928 49.9976 25.2851 49.9848ZM49.159 49.975C49.1591 49.975 49.1587 49.9761 49.1577 49.9783C49.1584 49.9761 49.1589 49.975 49.159 49.975ZM25.2815 49.9783C25.2804 49.9761 25.2801 49.975 25.2801 49.975C25.2802 49.975 25.2808 49.9761 25.2815 49.9783Z" fill="#9D2374"/>
<path fill-rule="evenodd" clip-rule="evenodd" d="M31.8502 47.7398C31.8891 48.0784 31.6489 48.3849 31.3137 48.4242C29.1608 48.677 27.38 49.0573 26.1538 49.508C25.5373 49.7346 25.0961 49.9664 24.8207 50.1838C24.5355 50.4088 24.522 50.5395 24.522 50.5612C24.522 50.5777 24.5266 50.645 24.6381 50.7702C24.753 50.899 24.9509 51.0529 25.2565 51.2189C25.8669 51.5502 26.7905 51.8679 27.9836 52.1418C30.36 52.6875 33.673 53.0306 37.3534 53.0306C41.0339 53.0306 44.3469 52.6875 46.7233 52.1418C47.9164 51.8679 48.84 51.5502 49.4503 51.2189C49.756 51.0529 49.9539 50.899 50.0688 50.7702C50.1803 50.645 50.1849 50.5777 50.1849 50.5612C50.1849 50.5395 50.1714 50.4088 49.8862 50.1838C49.6108 49.9664 49.1696 49.7346 48.5531 49.508C47.3269 49.0573 45.5461 48.677 43.3932 48.4242C43.058 48.3849 42.8178 48.0784 42.8567 47.7398C42.8957 47.4011 43.199 47.1584 43.5342 47.1978C45.7337 47.456 47.6191 47.8509 48.9709 48.3477C49.6434 48.5949 50.2192 48.8799 50.6385 49.2107C51.048 49.534 51.407 49.983 51.407 50.5612C51.407 50.9709 51.2235 51.3197 50.9769 51.5963C50.7336 51.8694 50.4034 52.1031 50.0288 52.3065C49.2787 52.7137 48.2336 53.0612 46.9941 53.3458C44.5053 53.9173 41.0971 54.2653 37.3534 54.2653C33.6098 54.2653 30.2016 53.9173 27.7127 53.3458C26.4732 53.0612 25.4282 52.7137 24.6781 52.3065C24.3035 52.1031 23.9733 51.8694 23.73 51.5963C23.4834 51.3197 23.2999 50.9709 23.2999 50.5612C23.2999 49.983 23.6588 49.534 24.0684 49.2107C24.4877 48.8799 25.0635 48.5949 25.736 48.3477C27.0878 47.8509 28.9732 47.456 31.1727 47.1978C31.5079 47.1584 31.8112 47.4011 31.8502 47.7398Z" fill="#1F0D02"/>
<path fill-rule="evenodd" clip-rule="evenodd" d="M37.3531 13.5199C35.0415 13.5199 33.1152 14.0499 31.5416 14.9408C31.2472 15.1075 30.8749 15.0015 30.7099 14.7041C30.5449 14.4067 30.6498 14.0304 30.9442 13.8638C32.7159 12.8606 34.851 12.2852 37.3531 12.2852C41.7345 12.2852 44.9667 14.0502 47.0904 16.7254C49.2 19.3828 50.1844 22.8957 50.1844 26.3719C50.1844 33.2924 47.0484 39.3132 43.956 43.5738C42.4061 45.7091 40.8569 47.4166 39.6946 48.591C39.1131 49.1785 38.6275 49.6335 38.2859 49.9428C38.1151 50.0974 37.9802 50.2157 37.8873 50.296C37.8408 50.3361 37.8048 50.3668 37.78 50.3877L37.7513 50.4118L37.7434 50.4184L37.7412 50.4202C37.7409 50.4204 37.74 50.4212 37.3531 49.9434C36.9662 50.4212 36.966 50.4211 36.9659 50.421L36.9642 50.4195L36.9599 50.416L36.9447 50.4033L36.8885 50.3557C36.8397 50.3141 36.7688 50.253 36.6778 50.1729C36.496 50.0128 36.234 49.7768 35.9094 49.4696C35.2603 48.8554 34.3595 47.956 33.3465 46.8093C31.3229 44.5188 28.8383 41.2275 27.0218 37.2406C26.8807 36.9309 27.0148 36.5642 27.3213 36.4216C27.6278 36.2791 27.9907 36.4146 28.1318 36.7243C29.8816 40.5648 32.2852 43.7539 34.2581 45.9871C35.2433 47.1022 36.118 47.9754 36.7447 48.5684C36.9875 48.7981 37.193 48.9857 37.3531 49.1288C37.3898 49.096 37.429 49.0608 37.4704 49.0233C37.7971 48.7275 38.2663 48.288 38.8305 47.718C39.9594 46.5773 41.4653 44.9174 42.9705 42.8436C45.9883 38.6858 48.9624 32.9209 48.9624 26.3719C48.9624 23.1135 48.0374 19.8916 46.1372 17.498C44.2511 15.1221 41.3731 13.5199 37.3531 13.5199ZM37.3531 49.9434L36.9659 50.421C37.1909 50.607 37.5149 50.6073 37.74 50.4212L37.3531 49.9434Z" fill="#1F0D02"/>
<path fill-rule="evenodd" clip-rule="evenodd" d="M37.353 22.1624C35.6657 22.1624 34.2979 23.5444 34.2979 25.2492C34.2979 26.9539 35.6657 28.3359 37.353 28.3359C39.0403 28.3359 40.4081 26.9539 40.4081 25.2492C40.4081 23.5444 39.0403 22.1624 37.353 22.1624ZM33.0759 25.2492C33.0759 22.8625 34.9908 20.9277 37.353 20.9277C39.7152 20.9277 41.6301 22.8625 41.6301 25.2492C41.6301 27.6358 39.7152 29.5706 37.353 29.5706C34.9908 29.5706 33.0759 27.6358 33.0759 25.2492Z" fill="#1F0D02"/>
<path fill-rule="evenodd" clip-rule="evenodd" d="M10.4684 19.6934C10.8058 19.6934 11.0794 19.9698 11.0794 20.3107V32.6578C11.0794 32.9987 11.353 33.2751 11.6904 33.2751H26.3548C26.6923 33.2751 26.9658 32.9987 26.9658 32.6578V20.3107C26.9658 19.9698 27.2394 19.6934 27.5769 19.6934C27.9143 19.6934 28.1879 19.9698 28.1879 20.3107V32.6578C28.1879 33.6807 27.3672 34.5098 26.3548 34.5098H11.6904C10.678 34.5098 9.85736 33.6807 9.85736 32.6578V20.3107C9.85736 19.9698 10.1309 19.6934 10.4684 19.6934Z" fill="#1F0D02"/>
<path fill-rule="evenodd" clip-rule="evenodd" d="M8.63538 17.8413C8.63538 16.8184 9.45606 15.9893 10.4684 15.9893H27.577C28.5893 15.9893 29.41 16.8184 29.41 17.8413V19.076C29.41 20.0989 28.5893 20.928 27.577 20.928H10.4684C9.45606 20.928 8.63538 20.0989 8.63538 19.076V17.8413ZM10.4684 17.224C10.131 17.224 9.85741 17.5004 9.85741 17.8413V19.076C9.85741 19.417 10.131 19.6933 10.4684 19.6933H27.577C27.9144 19.6933 28.188 19.417 28.188 19.076V17.8413C28.188 17.5004 27.9144 17.224 27.577 17.224H10.4684Z" fill="#1F0D02"/>
<path fill-rule="evenodd" clip-rule="evenodd" d="M15.9676 20.3107C15.9676 19.9697 16.2412 19.6934 16.5786 19.6934H21.4667C21.8042 19.6934 22.0778 19.9697 22.0778 20.3107V24.0147C22.0778 24.2371 21.9594 24.4423 21.7678 24.5519C21.5762 24.6615 21.3411 24.6585 21.1524 24.544L20.2447 23.9938L19.337 24.544C19.1435 24.6613 18.9018 24.6613 18.7083 24.544L17.8006 23.9938L16.893 24.544C16.7042 24.6585 16.4691 24.6615 16.2776 24.5519C16.086 24.4423 15.9676 24.2371 15.9676 24.0147V20.3107ZM17.1896 20.928V22.9244L17.4863 22.7445C17.6798 22.6272 17.9215 22.6272 18.115 22.7445L19.0227 23.2948L19.9303 22.7445C20.1238 22.6272 20.3656 22.6272 20.5591 22.7445L20.8557 22.9244V20.928H17.1896Z" fill="#1F0D02"/>
<path fill-rule="evenodd" clip-rule="evenodd" d="M16.5786 7.34668C16.9161 7.34668 17.1896 7.62307 17.1896 7.96402L17.1896 11.6681C17.1896 12.009 16.9161 12.2854 16.5786 12.2854C16.2412 12.2854 15.9676 12.009 15.9676 11.6681L15.9676 7.96402C15.9676 7.62307 16.2412 7.34668 16.5786 7.34668Z" fill="#1F0D02"/>
<path fill-rule="evenodd" clip-rule="evenodd" d="M19.0226 8.58105C19.3601 8.58105 19.6337 8.85745 19.6337 9.1984L19.6337 14.1371C19.6337 14.4781 19.3601 14.7545 19.0226 14.7545C18.6852 14.7545 18.4116 14.4781 18.4116 14.1371L18.4116 9.1984C18.4116 8.85745 18.6852 8.58105 19.0226 8.58105Z" fill="#1F0D02"/>
<path fill-rule="evenodd" clip-rule="evenodd" d="M21.4666 7.34668C21.8041 7.34668 22.0776 7.62307 22.0776 7.96402L22.0776 12.9028C22.0776 13.2437 21.8041 13.5201 21.4666 13.5201C21.1292 13.5201 20.8556 13.2437 20.8556 12.9028L20.8556 7.96402C20.8556 7.62307 21.1292 7.34668 21.4666 7.34668Z" fill="#1F0D02"/>
</svg>
