<svg width="58" height="58" viewBox="0 0 58 58" fill="none" xmlns="http://www.w3.org/2000/svg">
<path d="M7.24999 9.6665C5.96811 9.6665 4.73873 10.1757 3.83231 11.0822C2.92588 11.9886 2.41666 13.218 2.41666 14.4998V41.0832H7.24999C7.24999 43.006 8.01383 44.8501 9.37346 46.2097C10.7331 47.5693 12.5772 48.3332 14.5 48.3332C16.4228 48.3332 18.2669 47.5693 19.6265 46.2097C20.9862 44.8501 21.75 43.006 21.75 41.0832H36.25C36.25 43.006 37.0138 44.8501 38.3735 46.2097C39.7331 47.5693 41.5772 48.3332 43.5 48.3332C45.4228 48.3332 47.2669 47.5693 48.6265 46.2097C49.9861 44.8501 50.75 43.006 50.75 41.0832H55.5833V28.9998L48.3333 19.3332H41.0833V9.6665H7.24999ZM24.1667 14.4998L33.8333 24.1665L24.1667 33.8332V26.5832H9.66666V21.7498H24.1667V14.4998ZM41.0833 22.9582H47.125L51.8858 28.9998H41.0833V22.9582ZM14.5 37.4582C15.4614 37.4582 16.3834 37.8401 17.0632 38.5199C17.7431 39.1997 18.125 40.1218 18.125 41.0832C18.125 42.0446 17.7431 42.9666 17.0632 43.6464C16.3834 44.3262 15.4614 44.7082 14.5 44.7082C13.5386 44.7082 12.6165 44.3262 11.9367 43.6464C11.2569 42.9666 10.875 42.0446 10.875 41.0832C10.875 40.1218 11.2569 39.1997 11.9367 38.5199C12.6165 37.8401 13.5386 37.4582 14.5 37.4582V37.4582ZM43.5 37.4582C44.4614 37.4582 45.3834 37.8401 46.0632 38.5199C46.7431 39.1997 47.125 40.1218 47.125 41.0832C47.125 42.0446 46.7431 42.9666 46.0632 43.6464C45.3834 44.3262 44.4614 44.7082 43.5 44.7082C42.5386 44.7082 41.6165 44.3262 40.9367 43.6464C40.2569 42.9666 39.875 42.0446 39.875 41.0832C39.875 40.1218 40.2569 39.1997 40.9367 38.5199C41.6165 37.8401 42.5386 37.4582 43.5 37.4582Z" fill="url(#paint0_linear)"/>
<defs>
<linearGradient id="paint0_linear" x1="29" y1="9.6665" x2="29" y2="48.3332" gradientUnits="userSpaceOnUse">
<stop stop-color="#9D2374"/>
<stop offset="1" stop-color="#550096"/>
</linearGradient>
</defs>
</svg>
